SplineFontDB: 3.2
FontName: KumikoPunch
FullName: KumikoPunch
FamilyName: KumikoPunch
Weight: Bold
Copyright: Copyright (c) 2025, Nagy Tibor <xnagytibor@protonmail.com>
UComments: "2025-7-6: Created with FontForge (http://fontforge.org)"
Version: 001.000
ItalicAngle: 0
UnderlinePosition: -100
UnderlineWidth: 50
Ascent: 800
Descent: 200
InvalidEm: 0
LayerCount: 2
Layer: 0 0 "Back" 1
Layer: 1 0 "Fore" 0
XUID: [1021 853 1156904377 7870410]
OS2Version: 0
OS2_WeightWidthSlopeOnly: 0
OS2_UseTypoMetrics: 1
CreationTime: 1751764795
ModificationTime: 1752873808
OS2TypoAscent: 0
OS2TypoAOffset: 1
OS2TypoDescent: 0
OS2TypoDOffset: 1
OS2TypoLinegap: 0
OS2WinAscent: 0
OS2WinAOffset: 1
OS2WinDescent: 0
OS2WinDOffset: 1
HheadAscent: 0
HheadAOffset: 1
HheadDescent: 0
HheadDOffset: 1
OS2Vendor: 'PfEd'
MarkAttachClasses: 1
DEI: 91125

StartChar: a
Encoding: 97 97 0
Width: 866
Flags: HW
LayerCount: 2
Fore
SplineSet
805.991210938 696.00390625 m 1
 805.991210938 -96.013671875 l 1
 120.081054688 299.995117188 l 1
 805.991210938 696.00390625 l 1
EndSplineSet
EndChar

StartChar: A
Encoding: 65 65 2
Width: 866
Flags: HW
LayerCount: 2
Fore
SplineSet
60.037109375 696.00390625 m 1
 745.947265625 299.995117188 l 1
 60.037109375 -96.013671875 l 1
 60.037109375 696.00390625 l 1
EndSplineSet
EndChar

StartChar: B
Encoding: 66 66 3
Width: 866
Flags: HW
LayerCount: 2
Fore
SplineSet
60.037109375 575.9453125 m 1
 219.352539062 300.001953125 l 1
 60.037109375 24.0595703125 l 1
 60.037109375 575.9453125 l 1
164.025390625 635.966796875 m 1
 641.951171875 360.0390625 l 1
 323.333984375 360.0390625 l 1
 164.025390625 635.966796875 l 1
323.341796875 239.965820312 m 1
 641.973632812 239.965820312 l 1
 164.018554688 -35.9765625 l 1
 323.341796875 239.965820312 l 1
EndSplineSet
EndChar

StartChar: b
Encoding: 98 98 4
Width: 866
Flags: HW
LayerCount: 2
Fore
SplineSet
805.98828125 575.9453125 m 1
 805.98828125 24.0595703125 l 1
 646.672851562 300.001953125 l 1
 805.98828125 575.9453125 l 1
702 635.966796875 m 1
 542.69140625 360.0390625 l 1
 224.07421875 360.0390625 l 1
 702 635.966796875 l 1
542.68359375 239.965820312 m 1
 702.006835938 -35.9765625 l 1
 224.051757812 239.965820312 l 1
 542.68359375 239.965820312 l 1
EndSplineSet
EndChar

StartChar: C
Encoding: 67 67 5
Width: 866
Flags: HW
LayerCount: 2
Fore
SplineSet
60.037109375 239.965820312 m 1
 254.010742188 239.965820312 l 1
 351.001953125 71.9755859375 l 1
 60.037109375 -96.013671875 l 1
 60.037109375 239.965820312 l 1
454.990234375 467.984375 m 1
 745.955078125 300.001953125 l 1
 454.990234375 132.012695312 l 1
 358 300.001953125 l 1
 454.990234375 467.984375 l 1
60.037109375 696.01171875 m 1
 351.001953125 528.021484375 l 1
 254.018554688 360.0390625 l 1
 60.037109375 360.0390625 l 1
 60.037109375 696.01171875 l 1
EndSplineSet
EndChar

StartChar: D
Encoding: 68 68 6
Width: 866
Flags: HW
LayerCount: 2
Fore
SplineSet
60.037109375 362.674804688 m 1
 228.639648438 265.336914062 l 1
 228.639648438 1.32421875 l 1
 60.037109375 -96.013671875 l 1
 60.037109375 362.674804688 l 1
60.037109375 696.01171875 m 1
 457.278320312 466.663085938 l 1
 288.67578125 369.326171875 l 1
 60.037109375 501.329101562 l 1
 60.037109375 696.01171875 l 1
577.352539062 397.33984375 m 1
 745.955078125 300.001953125 l 1
 348.712890625 70.654296875 l 1
 348.712890625 265.336914062 l 1
 577.352539062 397.33984375 l 1
EndSplineSet
EndChar

StartChar: E
Encoding: 69 69 7
Width: 866
Flags: HW
LayerCount: 2
Fore
SplineSet
577.352539062 397.33984375 m 1
 745.955078125 300.001953125 l 1
 577.352539062 202.657226562 l 1
 408.75 300.001953125 l 1
 577.352539062 397.33984375 l 1
228.639648438 196.013671875 m 1
 228.639648438 1.32421875 l 1
 60.037109375 -96.013671875 l 1
 60.037109375 98.67578125 l 1
 228.639648438 196.013671875 l 1
60.037109375 696.01171875 m 1
 228.639648438 598.673828125 l 1
 228.639648438 403.991210938 l 1
 60.037109375 501.329101562 l 1
 60.037109375 696.01171875 l 1
348.712890625 529.342773438 m 1
 457.278320312 466.663085938 l 1
 348.712890625 403.991210938 l 1
 348.712890625 529.342773438 l 1
348.712890625 196.013671875 m 1
 457.278320312 133.333984375 l 1
 348.712890625 70.654296875 l 1
 348.712890625 196.013671875 l 1
60.037109375 362.674804688 m 1
 168.602539062 300.001953125 l 1
 60.037109375 237.323242188 l 1
 60.037109375 362.674804688 l 1
EndSplineSet
EndChar

StartChar: F
Encoding: 70 70 8
Width: 866
Flags: HW
LayerCount: 2
Fore
SplineSet
60.037109375 655.056640625 m 1
 415.090820312 300.001953125 l 1
 60.037109375 -55.05859375 l 1
 60.037109375 655.056640625 l 1
364.916015625 519.990234375 m 1
 536.19140625 421.102539062 l 1
 499.998046875 384.909179688 l 1
 364.916015625 519.990234375 l 1
499.998046875 215.095703125 m 1
 536.19140625 178.90234375 l 1
 364.916015625 80.0078125 l 1
 499.998046875 215.095703125 l 1
643.848632812 358.947265625 m 1
 745.947265625 300.001953125 l 1
 643.848632812 241.057617188 l 1
 584.904296875 300.001953125 l 1
 643.848632812 358.947265625 l 1
EndSplineSet
EndChar

StartChar: G
Encoding: 71 71 9
Width: 866
Flags: HW
LayerCount: 2
Fore
SplineSet
95.5068359375 675.526367188 m 1
 710.477539062 320.479492188 l 1
 225.46484375 190.521484375 l 1
 95.5068359375 675.526367188 l 1
441.08984375 123.98828125 m 1
 269.79296875 25.0859375 l 1
 256.54296875 74.537109375 l 1
 441.08984375 123.98828125 l 1
60.037109375 343.96875 m 1
 109.48046875 159.444335938 l 1
 60.037109375 146.193359375 l 1
 60.037109375 343.96875 l 1
140.55859375 43.4599609375 m 1
 162.135742188 -37.0693359375 l 1
 60.037109375 -96.013671875 l 1
 60.037109375 21.8828125 l 1
 140.55859375 43.4599609375 l 1
EndSplineSet
EndChar

StartChar: H
Encoding: 72 72 10
Width: 866
Flags: HW
LayerCount: 2
Fore
SplineSet
225.46484375 409.483398438 m 1
 710.484375 279.525390625 l 1
 95.5068359375 -75.5361328125 l 1
 225.46484375 409.483398438 l 1
60.037109375 453.811523438 m 1
 109.48046875 440.560546875 l 1
 60.037109375 256.028320312 l 1
 60.037109375 453.811523438 l 1
269.79296875 574.904296875 m 1
 441.052734375 476.03125 l 1
 256.54296875 525.467773438 l 1
 269.79296875 574.904296875 l 1
60.037109375 696.01171875 m 1
 162.135742188 637.067382812 l 1
 140.55859375 556.544921875 l 1
 60.037109375 578.122070312 l 1
 60.037109375 696.01171875 l 1
EndSplineSet
EndChar

StartChar: I
Encoding: 73 73 11
Width: 866
Flags: HW
LayerCount: 2
Fore
SplineSet
60.037109375 696.01171875 m 1
 228.639648438 598.673828125 l 1
 228.639648438 334.66015625 l 1
 60.037109375 237.323242188 l 1
 60.037109375 696.01171875 l 1
288.67578125 230.678710938 m 1
 457.278320312 133.333984375 l 1
 60.037109375 -96.013671875 l 1
 60.037109375 98.67578125 l 1
 288.67578125 230.678710938 l 1
348.712890625 529.3359375 m 1
 745.947265625 299.995117188 l 1
 577.352539062 202.657226562 l 1
 348.712890625 334.66015625 l 1
 348.712890625 529.3359375 l 1
EndSplineSet
EndChar

StartChar: J
Encoding: 74 74 12
Width: 866
Flags: HW
LayerCount: 2
Fore
SplineSet
60.037109375 696.00390625 m 1
 441.052734375 476.03125 l 1
 60.037109375 578.122070312 l 1
 60.037109375 696.00390625 l 1
60.037109375 453.811523438 m 1
 409.998046875 360.0390625 l 1
 60.037109375 360.0390625 l 1
 60.037109375 453.811523438 l 1
60.037109375 239.965820312 m 1
 409.998046875 239.965820312 l 1
 60.037109375 146.193359375 l 1
 60.037109375 239.965820312 l 1
441.08984375 123.98828125 m 1
 60.037109375 -96.013671875 l 1
 60.037109375 21.8828125 l 1
 441.08984375 123.98828125 l 1
EndSplineSet
EndChar

StartChar: K
Encoding: 75 75 13
Width: 866
Flags: HW
LayerCount: 2
Fore
SplineSet
643.848632812 358.947265625 m 1
 745.955078125 300.001953125 l 1
 364.909179688 80 l 1
 643.848632812 358.947265625 l 1
454.982421875 467.984375 m 1
 536.19140625 421.102539062 l 1
 280.017578125 164.920898438 l 1
 454.982421875 467.984375 l 1
269.79296875 574.911132812 m 1
 351.001953125 528.021484375 l 1
 176.021484375 224.943359375 l 1
 269.79296875 574.911132812 l 1
60.037109375 696.01171875 m 1
 162.135742188 637.067382812 l 1
 60.037109375 256.028320312 l 1
 60.037109375 696.01171875 l 1
EndSplineSet
EndChar

StartChar: L
Encoding: 76 76 14
Width: 866
Flags: HW
LayerCount: 2
Fore
SplineSet
60.037109375 343.96875 m 1
 162.135742188 -37.0693359375 l 1
 60.037109375 -96.013671875 l 1
 60.037109375 343.96875 l 1
176.021484375 375.053710938 m 1
 351.001953125 71.9755859375 l 1
 269.79296875 25.0859375 l 1
 176.021484375 375.053710938 l 1
280.009765625 435.083984375 m 1
 536.19140625 178.90234375 l 1
 454.990234375 132.012695312 l 1
 280.009765625 435.083984375 l 1
364.923828125 519.982421875 m 1
 745.947265625 300.001953125 l 1
 643.848632812 241.057617188 l 1
 364.923828125 519.982421875 l 1
EndSplineSet
EndChar

StartChar: M
Encoding: 77 77 15
Width: 866
Flags: HW
LayerCount: 2
Fore
SplineSet
60.037109375 696.00390625 m 1
 641.951171875 360.0390625 l 1
 60.037109375 360.0390625 l 1
 60.037109375 696.00390625 l 1
60.037109375 239.965820312 m 1
 641.973632812 239.965820312 l 1
 60.037109375 -96.013671875 l 1
 60.037109375 239.965820312 l 1
EndSplineSet
EndChar

StartChar: N
Encoding: 78 78 16
Width: 866
Flags: HW
LayerCount: 2
Fore
SplineSet
454.990234375 467.984375 m 1
 745.955078125 300.001953125 l 1
 164.025390625 -35.9765625 l 1
 454.990234375 467.984375 l 1
60.037109375 696.01171875 m 1
 351.001953125 528.021484375 l 1
 60.037109375 24.0595703125 l 1
 60.037109375 696.01171875 l 1
EndSplineSet
EndChar

StartChar: O
Encoding: 79 79 17
Width: 866
Flags: HW
LayerCount: 2
Fore
SplineSet
60.037109375 575.9375 m 1
 351.001953125 71.9755859375 l 1
 60.037109375 -96.013671875 l 1
 60.037109375 575.9375 l 1
164.025390625 635.966796875 m 1
 745.947265625 299.995117188 l 1
 454.990234375 132.012695312 l 1
 164.025390625 635.966796875 l 1
EndSplineSet
EndChar

StartChar: P
Encoding: 80 80 18
Width: 866
Flags: HW
LayerCount: 2
Fore
SplineSet
305.986328125 329.987304688 m 1
 305.986328125 270.017578125 l 1
 254.047851562 300.001953125 l 1
 305.986328125 329.987304688 l 1
60.037109375 696.01171875 m 1
 351.001953125 528.021484375 l 1
 322.072265625 477.927734375 l 1
 117.888671875 360.0390625 l 1
 60.037109375 360.0390625 l 1
 60.037109375 696.01171875 l 1
454.982421875 467.984375 m 1
 745.955078125 300.001953125 l 1
 454.990234375 132.012695312 l 1
 426.060546875 182.11328125 l 1
 426.060546875 417.891601562 l 1
 454.982421875 467.984375 l 1
60.037109375 239.965820312 m 1
 117.888671875 239.965820312 l 1
 322.072265625 122.077148438 l 1
 351.001953125 71.9755859375 l 1
 60.037109375 -96.013671875 l 1
 60.037109375 239.965820312 l 1
EndSplineSet
EndChar

StartChar: Q
Encoding: 81 81 19
Width: 866
Flags: HW
LayerCount: 2
Fore
SplineSet
276.540039062 321.01171875 m 1
 312.940429688 300.001953125 l 1
 276.540039062 278.986328125 l 1
 276.540039062 321.01171875 l 1
433.014648438 230.678710938 m 1
 529.444335938 174.997070312 l 1
 276.540039062 28.9912109375 l 1
 276.540039062 140.33984375 l 1
 433.014648438 230.678710938 l 1
276.540039062 571.013671875 m 1
 529.444335938 425 l 1
 433.014648438 369.326171875 l 1
 276.540039062 459.665039062 l 1
 276.540039062 571.013671875 l 1
60.037109375 446.008789062 m 1
 156.466796875 390.334960938 l 1
 156.466796875 209.663085938 l 1
 60.037109375 153.98828125 l 1
 60.037109375 446.008789062 l 1
649.517578125 355.676757812 m 1
 745.955078125 300.001953125 l 1
 649.517578125 244.321289062 l 1
 553.087890625 300.001953125 l 1
 649.517578125 355.676757812 l 1
156.466796875 71.0087890625 m 1
 156.466796875 -40.33984375 l 1
 60.037109375 -96.013671875 l 1
 60.037109375 15.3349609375 l 1
 156.466796875 71.0087890625 l 1
60.037109375 696.01171875 m 1
 156.466796875 640.336914062 l 1
 156.466796875 528.98828125 l 1
 60.037109375 584.663085938 l 1
 60.037109375 696.01171875 l 1
EndSplineSet
EndChar

StartChar: R
Encoding: 82 82 20
Width: 866
Flags: HW
LayerCount: 2
Fore
SplineSet
709.5546875 321.01171875 m 1
 745.955078125 300.001953125 l 1
 709.5546875 278.986328125 l 1
 709.5546875 321.01171875 l 1
60.037109375 -53.98828125 m 1
 96.4296875 -74.998046875 l 1
 60.037109375 -96.013671875 l 1
 60.037109375 -53.98828125 l 1
60.037109375 696.01171875 m 1
 96.4296875 675.002929688 l 1
 60.037109375 653.986328125 l 1
 60.037109375 696.01171875 l 1
216.50390625 605.678710938 m 1
 589.48046875 390.341796875 l 1
 589.48046875 360.0390625 l 1
 323.333984375 360.0390625 l 1
 190.268554688 590.524414062 l 1
 216.50390625 605.678710938 l 1
323.341796875 239.965820312 m 1
 589.48046875 239.965820312 l 1
 589.48046875 209.663085938 l 1
 216.50390625 -5.673828125 l 1
 190.268554688 9.4736328125 l 1
 323.341796875 239.965820312 l 1
86.279296875 530.487304688 m 1
 219.352539062 300.001953125 l 1
 86.279296875 69.5107421875 l 1
 60.037109375 84.658203125 l 1
 60.037109375 515.33984375 l 1
 86.279296875 530.487304688 l 1
EndSplineSet
EndChar

StartChar: S
Encoding: 83 83 21
Width: 866
Flags: HW
LayerCount: 2
Fore
SplineSet
60.037109375 575.9375 m 1
 75.0146484375 549.997070312 l 1
 60.037109375 524.057617188 l 1
 60.037109375 575.9375 l 1
60.037109375 75.9404296875 m 1
 75.0146484375 50 l 1
 60.037109375 24.0595703125 l 1
 60.037109375 75.9404296875 l 1
179.00390625 -10.037109375 m 1
 208.958984375 -10.037109375 l 1
 164.018554688 -35.9765625 l 1
 179.00390625 -10.037109375 l 1
612.017578125 239.965820312 m 1
 641.973632812 239.965820312 l 1
 597.032226562 214.025390625 l 1
 612.017578125 239.965820312 l 1
164.018554688 635.974609375 m 1
 208.958984375 610.034179688 l 1
 179.00390625 610.034179688 l 1
 164.018554688 635.974609375 l 1
597.040039062 385.971679688 m 1
 641.958984375 360.0390625 l 1
 612.010742188 360.0390625 l 1
 597.040039062 385.971679688 l 1
178.99609375 489.9609375 m 1
 398.356445312 489.9609375 l 1
 508.029296875 300.001953125 l 1
 398.348632812 110.037109375 l 1
 179.00390625 110.037109375 l 1
 69.3232421875 300.001953125 l 1
 178.99609375 489.9609375 l 1
EndSplineSet
EndChar

StartChar: T
Encoding: 84 84 22
Width: 866
Flags: HW
LayerCount: 2
Fore
SplineSet
189.943359375 471.01171875 m 1
 486.141601562 300.001953125 l 1
 189.943359375 128.986328125 l 1
 189.943359375 471.01171875 l 1
606.215820312 230.678710938 m 1
 616.047851562 225.001953125 l 1
 189.943359375 -21.013671875 l 1
 189.943359375 -9.66015625 l 1
 606.215820312 230.678710938 l 1
189.943359375 621.01171875 m 1
 616.047851562 375.001953125 l 1
 606.215820312 369.326171875 l 1
 189.943359375 609.658203125 l 1
 189.943359375 621.01171875 l 1
60.037109375 546.01171875 m 1
 69.869140625 540.334960938 l 1
 69.869140625 59.6630859375 l 1
 60.037109375 53.986328125 l 1
 60.037109375 546.01171875 l 1
736.122070312 305.678710938 m 1
 745.947265625 300.001953125 l 1
 736.122070312 294.326171875 l 1
 726.296875 300.001953125 l 1
 736.122070312 305.678710938 l 1
69.869140625 -78.9912109375 m 1
 69.869140625 -90.3369140625 l 1
 60.037109375 -96.013671875 l 1
 60.037109375 -84.66796875 l 1
 69.869140625 -78.9912109375 l 1
60.037109375 696.01171875 m 1
 69.869140625 690.334960938 l 1
 69.869140625 678.98828125 l 1
 60.037109375 684.665039062 l 1
 60.037109375 696.01171875 l 1
EndSplineSet
EndChar

StartChar: U
Encoding: 85 85 23
Width: 866
Flags: HW
LayerCount: 2
Fore
SplineSet
300.8046875 321.01171875 m 1
 300.8046875 278.986328125 l 1
 264.412109375 300.001953125 l 1
 300.8046875 321.01171875 l 1
124.982421875 583.526367188 m 1
 264.397460938 438.641601562 l 1
 180.745117188 390.349609375 l 1
 124.982421875 583.526367188 l 1
420.87890625 348.294921875 m 1
 616.0703125 300.001953125 l 1
 420.87890625 251.703125 l 1
 420.87890625 348.294921875 l 1
180.745117188 209.655273438 m 1
 264.397460938 161.35546875 l 1
 124.982421875 16.4716796875 l 1
 180.745117188 209.655273438 l 1
468.424804688 139.771484375 m 1
 337.55859375 64.2099609375 l 1
 392.088867188 120.880859375 l 1
 468.424804688 139.771484375 l 1
60.037109375 375.555664062 m 1
 81.8505859375 300.001953125 l 1
 60.037109375 224.44140625 l 1
 60.037109375 375.555664062 l 1
337.56640625 535.772460938 m 1
 468.41796875 460.2265625 l 1
 392.088867188 479.116210938 l 1
 337.56640625 535.772460938 l 1
EndSplineSet
EndChar

StartChar: V
Encoding: 86 86 24
Width: 866
Flags: HW
LayerCount: 2
Fore
SplineSet
124.982421875 583.526367188 m 1
 286.26953125 415.913085938 l 1
 254.010742188 360.0390625 l 1
 189.493164062 360.0390625 l 1
 124.982421875 583.526367188 l 1
390.258789062 355.875976562 m 1
 616.0703125 300.001953125 l 1
 390.258789062 244.12890625 l 1
 358 300.001953125 l 1
 390.258789062 355.875976562 l 1
189.493164062 239.965820312 m 1
 254.010742188 239.965820312 l 1
 286.26953125 184.084960938 l 1
 124.982421875 16.4716796875 l 1
 189.493164062 239.965820312 l 1
468.424804688 139.771484375 m 1
 337.55859375 64.2099609375 l 1
 392.088867188 120.880859375 l 1
 468.424804688 139.771484375 l 1
60.037109375 375.555664062 m 1
 81.8505859375 300.001953125 l 1
 60.037109375 224.44140625 l 1
 60.037109375 375.555664062 l 1
337.56640625 535.772460938 m 1
 468.41796875 460.2265625 l 1
 392.088867188 479.116210938 l 1
 337.56640625 535.772460938 l 1
EndSplineSet
EndChar

StartChar: X
Encoding: 88 88 25
Width: 866
Flags: HW
LayerCount: 2
Fore
SplineSet
233.245117188 396.00390625 m 1
 399.537109375 299.995117188 l 1
 233.245117188 203.986328125 l 1
 233.245117188 396.00390625 l 1
60.037109375 575.9453125 m 1
 113.171875 483.915039062 l 1
 113.171875 116.083007812 l 1
 60.037109375 24.052734375 l 1
 60.037109375 575.9453125 l 1
164.033203125 635.966796875 m 1
 641.951171875 360.0390625 l 1
 535.71875 360.0390625 l 1
 217.153320312 543.958984375 l 1
 164.033203125 635.966796875 l 1
535.704101562 239.965820312 m 1
 641.973632812 239.965820312 l 1
 164.025390625 -35.9765625 l 1
 217.16015625 56.0458984375 l 1
 535.704101562 239.965820312 l 1
EndSplineSet
EndChar

StartChar: Y
Encoding: 89 89 26
Width: 866
Flags: HW
LayerCount: 2
Fore
SplineSet
614.158203125 239.965820312 m 1
 641.973632812 239.965820312 l 1
 164.025390625 -35.9765625 l 1
 177.92578125 -11.8896484375 l 1
 614.158203125 239.965820312 l 1
164.025390625 635.966796875 m 1
 641.951171875 360.0390625 l 1
 614.158203125 360.0390625 l 1
 177.92578125 611.90234375 l 1
 164.025390625 635.966796875 l 1
60.037109375 575.9375 m 1
 73.9365234375 551.865234375 l 1
 73.9365234375 48.1474609375 l 1
 60.037109375 24.0673828125 l 1
 60.037109375 575.9375 l 1
194.010742188 463.961914062 m 1
 477.999023438 300.001953125 l 1
 194.010742188 136.04296875 l 1
 194.010742188 463.961914062 l 1
EndSplineSet
EndChar

StartChar: Z
Encoding: 90 90 27
Width: 866
Flags: HW
LayerCount: 2
Fore
SplineSet
276.540039062 321.01171875 m 1
 312.940429688 300.001953125 l 1
 276.540039062 278.986328125 l 1
 276.540039062 321.01171875 l 1
60.037109375 696.01171875 m 1
 529.444335938 425 l 1
 433.014648438 369.326171875 l 1
 60.037109375 584.663085938 l 1
 60.037109375 696.01171875 l 1
649.517578125 355.676757812 m 1
 745.947265625 300.001953125 l 1
 276.540039062 28.998046875 l 1
 276.540039062 140.33984375 l 1
 649.517578125 355.676757812 l 1
60.037109375 446.008789062 m 1
 156.466796875 390.334960938 l 1
 156.466796875 -40.33984375 l 1
 60.037109375 -96.013671875 l 1
 60.037109375 446.008789062 l 1
EndSplineSet
EndChar

StartChar: c
Encoding: 99 99 28
Width: 866
Flags: HW
LayerCount: 2
Fore
SplineSet
612.017578125 239.965820312 m 1
 805.991210938 239.965820312 l 1
 805.991210938 -96.013671875 l 1
 515.02734375 71.9755859375 l 1
 612.017578125 239.965820312 l 1
411.038085938 467.984375 m 1
 508.029296875 300.001953125 l 1
 411.038085938 132.012695312 l 1
 120.07421875 300.001953125 l 1
 411.038085938 467.984375 l 1
805.991210938 696.01171875 m 1
 805.991210938 360.0390625 l 1
 612.010742188 360.0390625 l 1
 515.02734375 528.021484375 l 1
 805.991210938 696.01171875 l 1
EndSplineSet
EndChar

StartChar: d
Encoding: 100 100 29
Width: 866
Flags: HW
LayerCount: 2
Fore
SplineSet
805.991210938 362.674804688 m 1
 805.991210938 -96.013671875 l 1
 637.389648438 1.32421875 l 1
 637.389648438 265.336914062 l 1
 805.991210938 362.674804688 l 1
805.991210938 696.01171875 m 1
 805.991210938 501.329101562 l 1
 577.352539062 369.326171875 l 1
 408.75 466.663085938 l 1
 805.991210938 696.01171875 l 1
288.67578125 397.33984375 m 1
 517.315429688 265.336914062 l 1
 517.315429688 70.654296875 l 1
 120.07421875 300.001953125 l 1
 288.67578125 397.33984375 l 1
EndSplineSet
EndChar

StartChar: e
Encoding: 101 101 30
Width: 866
Flags: HW
LayerCount: 2
Fore
SplineSet
288.67578125 397.33984375 m 1
 457.278320312 300.001953125 l 1
 288.67578125 202.657226562 l 1
 120.07421875 300.001953125 l 1
 288.67578125 397.33984375 l 1
637.389648438 196.013671875 m 1
 805.991210938 98.67578125 l 1
 805.991210938 -96.013671875 l 1
 637.389648438 1.32421875 l 1
 637.389648438 196.013671875 l 1
805.991210938 696.01171875 m 1
 805.991210938 501.329101562 l 1
 637.389648438 403.991210938 l 1
 637.389648438 598.673828125 l 1
 805.991210938 696.01171875 l 1
517.315429688 529.342773438 m 1
 517.315429688 403.991210938 l 1
 408.75 466.663085938 l 1
 517.315429688 529.342773438 l 1
517.315429688 196.013671875 m 1
 517.315429688 70.654296875 l 1
 408.75 133.333984375 l 1
 517.315429688 196.013671875 l 1
805.991210938 362.674804688 m 1
 805.991210938 237.323242188 l 1
 697.42578125 300.001953125 l 1
 805.991210938 362.674804688 l 1
EndSplineSet
EndChar

StartChar: f
Encoding: 102 102 31
Width: 866
Flags: HW
LayerCount: 2
Fore
SplineSet
805.991210938 655.056640625 m 1
 805.991210938 -55.05859375 l 1
 450.9296875 300.001953125 l 1
 805.991210938 655.056640625 l 1
501.08984375 519.975585938 m 1
 366.0234375 384.909179688 l 1
 329.830078125 421.102539062 l 1
 501.08984375 519.975585938 l 1
366.0234375 215.095703125 m 1
 501.112304688 80.0078125 l 1
 329.830078125 178.90234375 l 1
 366.0234375 215.095703125 l 1
222.172851562 358.947265625 m 1
 281.1171875 300.001953125 l 1
 222.172851562 241.057617188 l 1
 120.07421875 300.001953125 l 1
 222.172851562 358.947265625 l 1
EndSplineSet
EndChar

StartChar: g
Encoding: 103 103 32
Width: 866
Flags: HW
LayerCount: 2
Fore
SplineSet
770.521484375 675.526367188 m 1
 640.555664062 190.521484375 l 1
 155.55078125 320.479492188 l 1
 770.521484375 675.526367188 l 1
424.930664062 123.98828125 m 1
 609.478515625 74.537109375 l 1
 596.227539062 25.0859375 l 1
 424.930664062 123.98828125 l 1
805.991210938 343.991210938 m 1
 805.991210938 146.193359375 l 1
 756.540039062 159.444335938 l 1
 805.991210938 343.991210938 l 1
725.462890625 43.4599609375 m 1
 805.991210938 21.8828125 l 1
 805.991210938 -96.013671875 l 1
 703.885742188 -37.0693359375 l 1
 725.462890625 43.4599609375 l 1
EndSplineSet
EndChar

StartChar: h
Encoding: 104 104 33
Width: 866
Flags: HW
LayerCount: 2
Fore
SplineSet
640.555664062 409.483398438 m 1
 770.521484375 -75.5361328125 l 1
 155.543945312 279.525390625 l 1
 640.555664062 409.483398438 l 1
805.991210938 453.811523438 m 1
 805.991210938 256.013671875 l 1
 756.540039062 440.560546875 l 1
 805.991210938 453.811523438 l 1
596.227539062 574.911132812 m 1
 609.478515625 525.467773438 l 1
 424.946289062 476.0234375 l 1
 596.227539062 574.911132812 l 1
805.991210938 696.01171875 m 1
 805.991210938 578.122070312 l 1
 725.462890625 556.544921875 l 1
 703.885742188 637.067382812 l 1
 805.991210938 696.01171875 l 1
EndSplineSet
EndChar

StartChar: i
Encoding: 105 105 34
Width: 866
Flags: HW
LayerCount: 2
Fore
SplineSet
805.991210938 696.01171875 m 1
 805.991210938 237.323242188 l 1
 637.389648438 334.66015625 l 1
 637.389648438 598.673828125 l 1
 805.991210938 696.01171875 l 1
577.352539062 230.678710938 m 1
 805.991210938 98.67578125 l 1
 805.991210938 -96.013671875 l 1
 408.75 133.333984375 l 1
 577.352539062 230.678710938 l 1
517.315429688 529.3359375 m 1
 517.315429688 334.66015625 l 1
 288.67578125 202.657226562 l 1
 120.081054688 299.995117188 l 1
 517.315429688 529.3359375 l 1
EndSplineSet
EndChar

StartChar: j
Encoding: 106 106 35
Width: 866
Flags: HW
LayerCount: 2
Fore
SplineSet
805.991210938 696.00390625 m 1
 805.991210938 578.122070312 l 1
 424.975585938 476.03125 l 1
 805.991210938 696.00390625 l 1
805.991210938 453.811523438 m 1
 805.991210938 360.0390625 l 1
 456.03125 360.0390625 l 1
 805.991210938 453.811523438 l 1
456.03125 239.965820312 m 1
 805.991210938 239.965820312 l 1
 805.991210938 146.193359375 l 1
 456.03125 239.965820312 l 1
424.938476562 123.98828125 m 1
 805.991210938 21.8828125 l 1
 805.991210938 -96.013671875 l 1
 424.938476562 123.98828125 l 1
EndSplineSet
EndChar

StartChar: k
Encoding: 107 107 36
Width: 866
Flags: HW
LayerCount: 2
Fore
SplineSet
222.172851562 358.947265625 m 1
 501.112304688 80.0078125 l 1
 120.07421875 300.001953125 l 1
 222.172851562 358.947265625 l 1
411.038085938 467.984375 m 1
 586.018554688 164.9140625 l 1
 329.830078125 421.102539062 l 1
 411.038085938 467.984375 l 1
596.227539062 574.911132812 m 1
 690 224.951171875 l 1
 515.02734375 528.021484375 l 1
 596.227539062 574.911132812 l 1
805.991210938 696.01171875 m 1
 805.991210938 256.013671875 l 1
 703.885742188 637.067382812 l 1
 805.991210938 696.01171875 l 1
EndSplineSet
EndChar

StartChar: l
Encoding: 108 108 37
Width: 866
Flags: HW
LayerCount: 2
Fore
SplineSet
805.991210938 343.983398438 m 1
 805.991210938 -96.013671875 l 1
 703.885742188 -37.0693359375 l 1
 805.991210938 343.983398438 l 1
690 375.046875 m 1
 596.227539062 25.0859375 l 1
 515.02734375 71.9755859375 l 1
 690 375.046875 l 1
586.026367188 435.090820312 m 1
 411.038085938 132.012695312 l 1
 329.830078125 178.90234375 l 1
 586.026367188 435.090820312 l 1
501.08984375 519.975585938 m 1
 222.172851562 241.057617188 l 1
 120.081054688 299.995117188 l 1
 501.08984375 519.975585938 l 1
EndSplineSet
EndChar

StartChar: m
Encoding: 109 109 38
Width: 866
Flags: HW
LayerCount: 2
Fore
SplineSet
805.991210938 696.00390625 m 1
 805.991210938 360.0390625 l 1
 224.077148438 360.0390625 l 1
 805.991210938 696.00390625 l 1
224.0546875 239.965820312 m 1
 805.991210938 239.965820312 l 1
 805.991210938 -96.013671875 l 1
 224.0546875 239.965820312 l 1
EndSplineSet
EndChar

StartChar: n
Encoding: 110 110 39
Width: 866
Flags: HW
LayerCount: 2
Fore
SplineSet
411.038085938 467.984375 m 1
 702.002929688 -35.9765625 l 1
 120.07421875 300.001953125 l 1
 411.038085938 467.984375 l 1
805.991210938 696.01171875 m 1
 805.991210938 24.0595703125 l 1
 515.02734375 528.021484375 l 1
 805.991210938 696.01171875 l 1
EndSplineSet
EndChar

StartChar: o
Encoding: 111 111 40
Width: 866
Flags: HW
LayerCount: 2
Fore
SplineSet
805.991210938 575.9375 m 1
 805.991210938 -96.013671875 l 1
 515.02734375 71.9755859375 l 1
 805.991210938 575.9375 l 1
702.002929688 635.966796875 m 1
 411.038085938 132.012695312 l 1
 120.081054688 299.995117188 l 1
 702.002929688 635.966796875 l 1
EndSplineSet
EndChar

StartChar: p
Encoding: 112 112 41
Width: 866
Flags: HW
LayerCount: 2
Fore
SplineSet
560.034179688 329.987304688 m 1
 611.973632812 300.001953125 l 1
 560.034179688 270.017578125 l 1
 560.034179688 329.987304688 l 1
805.991210938 696.01171875 m 1
 805.991210938 360.0390625 l 1
 748.1328125 360.0390625 l 1
 543.94921875 477.920898438 l 1
 515.02734375 528.021484375 l 1
 805.991210938 696.01171875 l 1
411.038085938 467.984375 m 1
 439.9609375 417.883789062 l 1
 439.9609375 182.12109375 l 1
 411.038085938 132.012695312 l 1
 120.07421875 300.001953125 l 1
 411.038085938 467.984375 l 1
748.1328125 239.965820312 m 1
 805.991210938 239.965820312 l 1
 805.991210938 -96.013671875 l 1
 515.02734375 71.9755859375 l 1
 543.94921875 122.083984375 l 1
 748.1328125 239.965820312 l 1
EndSplineSet
EndChar

StartChar: q
Encoding: 113 113 42
Width: 866
Flags: HW
LayerCount: 2
Fore
SplineSet
589.48046875 321.01171875 m 1
 589.48046875 278.986328125 l 1
 553.087890625 300.001953125 l 1
 589.48046875 321.01171875 l 1
433.014648438 230.678710938 m 1
 589.48046875 140.33984375 l 1
 589.48046875 28.9912109375 l 1
 336.577148438 174.997070312 l 1
 433.014648438 230.678710938 l 1
589.48046875 571.013671875 m 1
 589.48046875 459.665039062 l 1
 433.014648438 369.326171875 l 1
 336.577148438 425 l 1
 589.48046875 571.013671875 l 1
805.991210938 446.008789062 m 1
 805.991210938 153.98828125 l 1
 709.5546875 209.663085938 l 1
 709.5546875 390.334960938 l 1
 805.991210938 446.008789062 l 1
216.50390625 355.676757812 m 1
 312.940429688 300.001953125 l 1
 216.50390625 244.321289062 l 1
 120.07421875 300.001953125 l 1
 216.50390625 355.676757812 l 1
709.5546875 71.0087890625 m 1
 805.991210938 15.3349609375 l 1
 805.991210938 -96.013671875 l 1
 709.5546875 -40.33984375 l 1
 709.5546875 71.0087890625 l 1
805.991210938 696.01171875 m 1
 805.991210938 584.663085938 l 1
 709.5546875 528.98828125 l 1
 709.5546875 640.336914062 l 1
 805.991210938 696.01171875 l 1
EndSplineSet
EndChar

StartChar: r
Encoding: 114 114 43
Width: 866
Flags: HW
LayerCount: 2
Fore
SplineSet
156.466796875 321.01171875 m 1
 156.466796875 278.986328125 l 1
 120.07421875 300.001953125 l 1
 156.466796875 321.01171875 l 1
805.991210938 -53.98828125 m 1
 805.991210938 -96.013671875 l 1
 769.591796875 -74.998046875 l 1
 805.991210938 -53.98828125 l 1
805.991210938 696.01171875 m 1
 805.991210938 653.986328125 l 1
 769.591796875 675.002929688 l 1
 805.991210938 696.01171875 l 1
649.517578125 605.678710938 m 1
 675.760742188 590.524414062 l 1
 542.694335938 360.0390625 l 1
 276.540039062 360.0390625 l 1
 276.540039062 390.341796875 l 1
 649.517578125 605.678710938 l 1
276.540039062 239.965820312 m 1
 542.6875 239.965820312 l 1
 675.760742188 9.4736328125 l 1
 649.517578125 -5.673828125 l 1
 276.540039062 209.663085938 l 1
 276.540039062 239.965820312 l 1
779.749023438 530.487304688 m 1
 805.991210938 515.33984375 l 1
 805.991210938 84.658203125 l 1
 779.749023438 69.5107421875 l 1
 646.67578125 300.001953125 l 1
 779.749023438 530.487304688 l 1
EndSplineSet
EndChar

StartChar: s
Encoding: 115 115 44
Width: 866
Flags: HW
LayerCount: 2
Fore
SplineSet
805.991210938 575.9375 m 1
 805.991210938 524.057617188 l 1
 791.013671875 549.997070312 l 1
 805.991210938 575.9375 l 1
805.991210938 75.9404296875 m 1
 805.991210938 24.0595703125 l 1
 791.013671875 50 l 1
 805.991210938 75.9404296875 l 1
657.069335938 -10.037109375 m 1
 687.025390625 -10.037109375 l 1
 702.010742188 -35.9765625 l 1
 657.069335938 -10.037109375 l 1
224.0546875 239.965820312 m 1
 254.010742188 239.965820312 l 1
 268.99609375 214.025390625 l 1
 224.0546875 239.965820312 l 1
702.010742188 635.974609375 m 1
 687.025390625 610.034179688 l 1
 657.069335938 610.034179688 l 1
 702.010742188 635.974609375 l 1
268.98828125 385.971679688 m 1
 254.018554688 360.0390625 l 1
 224.0703125 360.0390625 l 1
 268.98828125 385.971679688 l 1
467.671875 489.9609375 m 1
 687.032226562 489.9609375 l 1
 796.705078125 300.001953125 l 1
 687.025390625 110.037109375 l 1
 467.6796875 110.037109375 l 1
 358 300.001953125 l 1
 467.671875 489.9609375 l 1
EndSplineSet
EndChar

StartChar: t
Encoding: 116 116 45
Width: 866
Flags: HW
LayerCount: 2
Fore
SplineSet
676.084960938 471.00390625 m 1
 676.084960938 128.986328125 l 1
 379.88671875 299.995117188 l 1
 676.084960938 471.00390625 l 1
259.805664062 230.678710938 m 1
 676.084960938 -9.66015625 l 1
 676.084960938 -21.013671875 l 1
 249.98046875 225.001953125 l 1
 259.805664062 230.678710938 l 1
676.084960938 621.01171875 m 1
 676.084960938 609.672851562 l 1
 259.797851562 369.333007812 l 1
 249.98046875 375.001953125 l 1
 676.084960938 621.01171875 l 1
805.991210938 546.01171875 m 1
 805.991210938 53.986328125 l 1
 796.159179688 59.6630859375 l 1
 796.159179688 540.334960938 l 1
 805.991210938 546.01171875 l 1
129.90625 305.678710938 m 1
 139.739257812 300.001953125 l 1
 129.90625 294.326171875 l 1
 120.081054688 300.001953125 l 1
 129.90625 305.678710938 l 1
796.159179688 -78.9912109375 m 1
 805.991210938 -84.66796875 l 1
 805.991210938 -96.013671875 l 1
 796.159179688 -90.3369140625 l 1
 796.159179688 -78.9912109375 l 1
805.991210938 696.01171875 m 1
 805.991210938 684.665039062 l 1
 796.159179688 678.98828125 l 1
 796.159179688 690.334960938 l 1
 805.991210938 696.01171875 l 1
EndSplineSet
EndChar

StartChar: u
Encoding: 117 117 46
Width: 866
Flags: HW
LayerCount: 2
Fore
SplineSet
565.216796875 321.01171875 m 1
 601.616210938 300.001953125 l 1
 565.216796875 278.986328125 l 1
 565.216796875 321.01171875 l 1
741.052734375 583.541015625 m 1
 685.283203125 390.349609375 l 1
 601.624023438 438.649414062 l 1
 741.052734375 583.541015625 l 1
445.142578125 348.294921875 m 1
 445.142578125 251.703125 l 1
 249.951171875 300.001953125 l 1
 445.142578125 348.294921875 l 1
685.283203125 209.655273438 m 1
 741.052734375 16.45703125 l 1
 601.624023438 161.35546875 l 1
 685.283203125 209.655273438 l 1
397.603515625 139.763671875 m 1
 473.947265625 120.880859375 l 1
 528.469726562 64.2099609375 l 1
 397.603515625 139.763671875 l 1
805.991210938 375.555664062 m 1
 805.991210938 224.44140625 l 1
 784.177734375 300.001953125 l 1
 805.991210938 375.555664062 l 1
528.461914062 535.780273438 m 1
 473.939453125 479.116210938 l 1
 397.618164062 460.233398438 l 1
 528.461914062 535.780273438 l 1
EndSplineSet
EndChar

StartChar: v
Encoding: 118 118 47
Width: 866
Flags: HW
LayerCount: 2
Fore
SplineSet
741.052734375 583.541015625 m 1
 676.53515625 360.0390625 l 1
 612.010742188 360.0390625 l 1
 579.751953125 415.913085938 l 1
 741.052734375 583.541015625 l 1
475.770507812 355.875976562 m 1
 508.029296875 300.001953125 l 1
 475.770507812 244.12109375 l 1
 249.951171875 300.001953125 l 1
 475.770507812 355.875976562 l 1
612.010742188 239.965820312 m 1
 676.53515625 239.965820312 l 1
 741.052734375 16.45703125 l 1
 579.751953125 184.084960938 l 1
 612.010742188 239.965820312 l 1
397.603515625 139.763671875 m 1
 473.947265625 120.880859375 l 1
 528.469726562 64.2099609375 l 1
 397.603515625 139.763671875 l 1
805.991210938 375.555664062 m 1
 805.991210938 224.44140625 l 1
 784.177734375 300.001953125 l 1
 805.991210938 375.555664062 l 1
528.461914062 535.780273438 m 1
 473.939453125 479.116210938 l 1
 397.618164062 460.233398438 l 1
 528.461914062 535.780273438 l 1
EndSplineSet
EndChar

StartChar: x
Encoding: 120 120 48
Width: 866
Flags: HW
LayerCount: 2
Fore
SplineSet
632.783203125 396.00390625 m 1
 632.783203125 203.986328125 l 1
 466.491210938 299.995117188 l 1
 632.783203125 396.00390625 l 1
805.991210938 575.9453125 m 1
 805.991210938 24.052734375 l 1
 752.856445312 116.083007812 l 1
 752.856445312 483.915039062 l 1
 805.991210938 575.9453125 l 1
701.995117188 635.966796875 m 1
 648.875976562 543.958984375 l 1
 330.309570312 360.0390625 l 1
 224.077148438 360.0390625 l 1
 701.995117188 635.966796875 l 1
224.0546875 239.965820312 m 1
 330.325195312 239.965820312 l 1
 648.868164062 56.0458984375 l 1
 702.002929688 -35.9765625 l 1
 224.0546875 239.965820312 l 1
EndSplineSet
EndChar

StartChar: y
Encoding: 121 121 49
Width: 866
Flags: HW
LayerCount: 2
Fore
SplineSet
224.0546875 239.965820312 m 1
 251.862304688 239.965820312 l 1
 688.095703125 -11.8974609375 l 1
 702.002929688 -35.9765625 l 1
 224.0546875 239.965820312 l 1
701.98828125 635.959960938 m 1
 688.095703125 611.90234375 l 1
 251.862304688 360.0390625 l 1
 224.077148438 360.0390625 l 1
 701.98828125 635.959960938 l 1
805.991210938 575.952148438 m 1
 805.991210938 24.052734375 l 1
 792.083984375 48.1396484375 l 1
 792.083984375 551.865234375 l 1
 805.991210938 575.952148438 l 1
672.010742188 463.961914062 m 1
 672.010742188 136.04296875 l 1
 388.021484375 300.001953125 l 1
 672.010742188 463.961914062 l 1
EndSplineSet
EndChar

StartChar: z
Encoding: 122 122 50
Width: 866
Flags: HW
LayerCount: 2
Fore
SplineSet
589.48046875 321.01171875 m 1
 589.48046875 278.986328125 l 1
 553.087890625 300.001953125 l 1
 589.48046875 321.01171875 l 1
805.991210938 696.00390625 m 1
 805.991210938 584.663085938 l 1
 433.014648438 369.326171875 l 1
 336.584960938 425 l 1
 805.991210938 696.00390625 l 1
216.50390625 355.676757812 m 1
 589.48046875 140.33984375 l 1
 589.48046875 28.9912109375 l 1
 120.07421875 300.001953125 l 1
 216.50390625 355.676757812 l 1
805.991210938 446.008789062 m 1
 805.991210938 -96.013671875 l 1
 709.5546875 -40.33984375 l 1
 709.5546875 390.334960938 l 1
 805.991210938 446.008789062 l 1
EndSplineSet
EndChar

StartChar: odieresis
Encoding: 246 246 51
Width: 866
Flags: HW
LayerCount: 2
Fore
SplineSet
224.0546875 239.965820312 m 1
 805.991210938 239.965820312 l 1
 805.991210938 -96.013671875 l 1
 224.0546875 239.965820312 l 1
EndSplineSet
EndChar

StartChar: Odieresis
Encoding: 214 214 52
Width: 866
Flags: HW
LayerCount: 2
Fore
SplineSet
60.037109375 239.965820312 m 1
 641.973632812 239.965820312 l 1
 60.037109375 -96.013671875 l 1
 60.037109375 239.965820312 l 1
EndSplineSet
EndChar

StartChar: Udieresis
Encoding: 220 220 53
Width: 866
Flags: HW
LayerCount: 2
Fore
SplineSet
60.037109375 696.00390625 m 1
 641.951171875 360.0390625 l 1
 60.037109375 360.0390625 l 1
 60.037109375 696.00390625 l 1
EndSplineSet
EndChar

StartChar: udieresis
Encoding: 252 252 54
Width: 866
Flags: HW
LayerCount: 2
Fore
SplineSet
805.991210938 696.00390625 m 1
 805.991210938 360.0390625 l 1
 224.077148438 360.0390625 l 1
 805.991210938 696.00390625 l 1
EndSplineSet
EndChar

StartChar: zero
Encoding: 48 48 55
Width: 1732
Flags: HW
LayerCount: 2
Fore
SplineSet
866.036132812 730.668945312 m 1
 1611.97558594 300.001953125 l 1
 866.028320312 -130.678710938 l 1
 120.081054688 299.995117188 l 1
 866.036132812 730.668945312 l 1
EndSplineSet
EndChar

StartChar: one
Encoding: 49 49 56
Width: 1732
Flags: HW
LayerCount: 2
Fore
SplineSet
224.0546875 239.965820312 m 1
 1507.99414062 239.965820312 l 1
 866.028320312 -130.678710938 l 1
 224.0546875 239.965820312 l 1
EndSplineSet
EndChar

StartChar: two
Encoding: 50 50 57
Width: 1732
Flags: HW
LayerCount: 2
Fore
SplineSet
866.036132812 730.668945312 m 1
 1507.98730469 360.0390625 l 1
 224.077148438 360.0390625 l 1
 866.036132812 730.668945312 l 1
EndSplineSet
EndChar

StartChar: three
Encoding: 51 51 58
Width: 1732
Flags: HW
LayerCount: 2
Fore
SplineSet
649.517578125 605.678710938 m 1
 745.955078125 549.997070312 l 1
 433.014648438 369.326171875 l 1
 336.577148438 425 l 1
 649.517578125 605.678710938 l 1
866.028320312 730.676757812 m 1
 962.458007812 675.002929688 l 1
 866.028320312 619.321289062 l 1
 769.591796875 675.002929688 l 1
 866.028320312 730.676757812 l 1
216.50390625 355.676757812 m 1
 312.940429688 300.001953125 l 1
 216.50390625 244.321289062 l 1
 120.07421875 300.001953125 l 1
 216.50390625 355.676757812 l 1
1299.03515625 230.678710938 m 1
 1395.47265625 174.997070312 l 1
 1082.53222656 -5.673828125 l 1
 986.102539062 50 l 1
 1299.03515625 230.678710938 l 1
1515.54589844 355.676757812 m 1
 1611.97558594 300.001953125 l 1
 1515.54589844 244.321289062 l 1
 1419.109375 300.001953125 l 1
 1515.54589844 355.676757812 l 1
866.028320312 -19.3232421875 m 1
 962.458007812 -74.998046875 l 1
 866.028320312 -130.678710938 l 1
 769.591796875 -74.998046875 l 1
 866.028320312 -19.3232421875 l 1
1082.53222656 605.678710938 m 1
 1395.46484375 425.0078125 l 1
 649.510742188 -5.6669921875 l 1
 336.577148438 174.997070312 l 1
 1082.53222656 605.678710938 l 1
EndSplineSet
EndChar

StartChar: four
Encoding: 52 52 59
Width: 1732
Flags: HW
LayerCount: 2
Fore
SplineSet
1082.53222656 605.678710938 m 1
 1395.47265625 425 l 1
 1299.03515625 369.326171875 l 1
 986.102539062 549.997070312 l 1
 1082.53222656 605.678710938 l 1
866.028320312 730.676757812 m 1
 962.458007812 675.002929688 l 1
 866.028320312 619.321289062 l 1
 769.591796875 675.002929688 l 1
 866.028320312 730.676757812 l 1
1515.54589844 355.676757812 m 1
 1611.97558594 300.001953125 l 1
 1515.54589844 244.321289062 l 1
 1419.109375 300.001953125 l 1
 1515.54589844 355.676757812 l 1
433.014648438 230.678710938 m 1
 745.955078125 50 l 1
 649.517578125 -5.673828125 l 1
 336.577148438 174.997070312 l 1
 433.014648438 230.678710938 l 1
216.50390625 355.676757812 m 1
 312.940429688 300.001953125 l 1
 216.50390625 244.321289062 l 1
 120.07421875 300.001953125 l 1
 216.50390625 355.676757812 l 1
866.028320312 -19.3232421875 m 1
 962.458007812 -74.998046875 l 1
 866.028320312 -130.678710938 l 1
 769.591796875 -74.998046875 l 1
 866.028320312 -19.3232421875 l 1
649.517578125 605.678710938 m 1
 1395.47265625 174.997070312 l 1
 1082.5390625 -5.6669921875 l 1
 336.584960938 425.0078125 l 1
 649.517578125 605.678710938 l 1
EndSplineSet
EndChar

StartChar: five
Encoding: 53 53 60
Width: 1732
Flags: HW
LayerCount: 2
Fore
SplineSet
649.517578125 605.678710938 m 1
 745.955078125 549.997070312 l 1
 433.014648438 369.326171875 l 1
 336.577148438 425 l 1
 649.517578125 605.678710938 l 1
866.028320312 730.676757812 m 1
 962.458007812 675.002929688 l 1
 866.028320312 619.321289062 l 1
 769.591796875 675.002929688 l 1
 866.028320312 730.676757812 l 1
216.50390625 355.676757812 m 1
 312.940429688 300.001953125 l 1
 216.50390625 244.321289062 l 1
 120.07421875 300.001953125 l 1
 216.50390625 355.676757812 l 1
1299.03515625 230.678710938 m 1
 1395.47265625 174.997070312 l 1
 1082.53222656 -5.673828125 l 1
 986.102539062 50 l 1
 1299.03515625 230.678710938 l 1
1515.54589844 355.676757812 m 1
 1611.97558594 300.001953125 l 1
 1515.54589844 244.321289062 l 1
 1419.109375 300.001953125 l 1
 1515.54589844 355.676757812 l 1
866.028320312 -19.3232421875 m 1
 962.458007812 -74.998046875 l 1
 866.028320312 -130.678710938 l 1
 769.591796875 -74.998046875 l 1
 866.028320312 -19.3232421875 l 1
1082.53222656 605.678710938 m 1
 1395.47265625 425 l 1
 1299.03515625 369.326171875 l 1
 986.102539062 549.997070312 l 1
 1082.53222656 605.678710938 l 1
433.014648438 230.678710938 m 1
 745.955078125 50 l 1
 649.517578125 -5.673828125 l 1
 336.577148438 174.997070312 l 1
 433.014648438 230.678710938 l 1
866.028320312 480.673828125 m 1
 1178.96191406 300.001953125 l 1
 866.028320312 119.323242188 l 1
 553.087890625 300.001953125 l 1
 866.028320312 480.673828125 l 1
EndSplineSet
EndChar

StartChar: six
Encoding: 54 54 61
Width: 1732
Flags: HW
LayerCount: 2
Fore
SplineSet
866.036132812 730.668945312 m 1
 962.458007812 675.002929688 l 1
 216.50390625 244.321289062 l 1
 120.07421875 299.995117188 l 1
 866.036132812 730.668945312 l 1
1082.53222656 605.678710938 m 1
 1178.96191406 549.997070312 l 1
 433.014648438 119.323242188 l 1
 336.577148438 174.997070312 l 1
 1082.53222656 605.678710938 l 1
1299.03515625 480.673828125 m 1
 1395.46484375 425 l 1
 649.510742188 -5.6669921875 l 1
 553.087890625 50 l 1
 1299.03515625 480.673828125 l 1
1515.55371094 355.668945312 m 1
 1611.97558594 300.001953125 l 1
 866.028320312 -130.678710938 l 1
 769.598632812 -75.0048828125 l 1
 1515.55371094 355.668945312 l 1
EndSplineSet
EndChar

StartChar: seven
Encoding: 55 55 62
Width: 1732
Flags: HW
LayerCount: 2
Fore
SplineSet
866.028320312 730.676757812 m 1
 1611.97558594 300.001953125 l 1
 1515.54589844 244.321289062 l 1
 769.591796875 675.002929688 l 1
 866.028320312 730.676757812 l 1
649.517578125 605.678710938 m 1
 1395.47265625 174.997070312 l 1
 1299.03515625 119.323242188 l 1
 553.087890625 549.997070312 l 1
 649.517578125 605.678710938 l 1
433.014648438 480.673828125 m 1
 1178.96191406 50 l 1
 1082.5390625 -5.6669921875 l 1
 336.584960938 425 l 1
 433.014648438 480.673828125 l 1
216.49609375 355.668945312 m 1
 962.458007812 -75.0048828125 l 1
 866.028320312 -130.678710938 l 1
 120.07421875 300.001953125 l 1
 216.49609375 355.668945312 l 1
EndSplineSet
EndChar

StartChar: eight
Encoding: 56 56 63
Width: 1732
Flags: HW
LayerCount: 2
Fore
SplineSet
216.50390625 355.676757812 m 1
 312.940429688 300.001953125 l 1
 216.50390625 244.321289062 l 1
 120.07421875 300.001953125 l 1
 216.50390625 355.676757812 l 1
433.014648438 230.678710938 m 1
 529.444335938 174.997070312 l 1
 433.014648438 119.323242188 l 1
 336.577148438 174.997070312 l 1
 433.014648438 230.678710938 l 1
649.517578125 105.673828125 m 1
 745.947265625 50 l 1
 649.517578125 -5.673828125 l 1
 553.087890625 50 l 1
 649.517578125 105.673828125 l 1
866.028320312 -19.3232421875 m 1
 962.458007812 -74.998046875 l 1
 866.028320312 -130.678710938 l 1
 769.591796875 -74.998046875 l 1
 866.028320312 -19.3232421875 l 1
433.014648438 480.673828125 m 1
 529.444335938 425 l 1
 433.014648438 369.326171875 l 1
 336.584960938 425 l 1
 433.014648438 480.673828125 l 1
649.517578125 355.676757812 m 1
 745.955078125 300.001953125 l 1
 649.517578125 244.321289062 l 1
 553.087890625 300.001953125 l 1
 649.517578125 355.676757812 l 1
866.028320312 230.678710938 m 1
 962.458007812 174.997070312 l 1
 866.028320312 119.323242188 l 1
 769.591796875 174.997070312 l 1
 866.028320312 230.678710938 l 1
1082.53222656 105.673828125 m 1
 1178.96191406 50 l 1
 1082.53222656 -5.673828125 l 1
 986.102539062 50 l 1
 1082.53222656 105.673828125 l 1
649.517578125 605.678710938 m 1
 745.955078125 549.997070312 l 1
 649.517578125 494.323242188 l 1
 553.087890625 549.997070312 l 1
 649.517578125 605.678710938 l 1
866.028320312 480.673828125 m 1
 962.458007812 425 l 1
 866.028320312 369.326171875 l 1
 769.598632812 425 l 1
 866.028320312 480.673828125 l 1
1082.53222656 355.676757812 m 1
 1178.96191406 300.001953125 l 1
 1082.53222656 244.321289062 l 1
 986.102539062 300.001953125 l 1
 1082.53222656 355.676757812 l 1
1299.03515625 230.678710938 m 1
 1395.47265625 174.997070312 l 1
 1299.03515625 119.323242188 l 1
 1202.60546875 174.997070312 l 1
 1299.03515625 230.678710938 l 1
866.028320312 730.676757812 m 1
 962.458007812 675.002929688 l 1
 866.028320312 619.321289062 l 1
 769.591796875 675.002929688 l 1
 866.028320312 730.676757812 l 1
1082.53222656 605.678710938 m 1
 1178.96191406 549.997070312 l 1
 1082.53222656 494.323242188 l 1
 986.102539062 549.997070312 l 1
 1082.53222656 605.678710938 l 1
1299.03515625 480.673828125 m 1
 1395.46484375 425 l 1
 1299.03515625 369.326171875 l 1
 1202.60546875 425 l 1
 1299.03515625 480.673828125 l 1
1515.54589844 355.676757812 m 1
 1611.97558594 300.001953125 l 1
 1515.54589844 244.321289062 l 1
 1419.109375 300.001953125 l 1
 1515.54589844 355.676757812 l 1
EndSplineSet
EndChar

StartChar: W
Encoding: 87 87 64
Width: 866
Flags: HW
LayerCount: 2
Fore
SplineSet
60.037109375 533.646484375 m 1
 88.607421875 451.569335938 102.342773438 375.3984375 102.342773438 299.995117188 c 0
 102.342773438 224.591796875 88.607421875 148.427734375 60.037109375 66.3505859375 c 1
 60.037109375 533.646484375 l 1
200.676757812 614.810546875 m 1
 605.307617188 381.196289062 l 1
 519.956054688 397.4921875 447.135742188 423.673828125 381.842773438 461.370117188 c 0
 316.549804688 499.067382812 257.465820312 549.041992188 200.676757812 614.810546875 c 1
605.336914062 218.81640625 m 1
 200.654296875 -14.828125 l 1
 257.450195312 50.953125 316.541992188 100.932617188 381.842773438 138.634765625 c 0
 447.14453125 176.336914062 519.970703125 202.520507812 605.336914062 218.81640625 c 1
209.837890625 436.544921875 m 1
 245.40234375 406.3046875 282.543945312 380.008789062 321.787109375 357.353515625 c 0
 361.029296875 334.697265625 402.374023438 315.682617188 446.345703125 300.001953125 c 1
 402.374023438 284.322265625 361.03125 265.305664062 321.791015625 242.6484375 c 0
 282.549804688 219.990234375 245.41015625 193.693359375 209.844726562 163.452148438 c 1
 218.251953125 209.373046875 222.453125 254.685546875 222.451171875 299.999023438 c 0
 222.44921875 345.311523438 218.244140625 390.625 209.837890625 436.544921875 c 1
EndSplineSet
EndChar

StartChar: w
Encoding: 119 119 65
Width: 866
Flags: HW
LayerCount: 2
Fore
SplineSet
805.98828125 533.646484375 m 1
 805.98828125 66.3505859375 l 1
 777.41796875 148.427734375 763.682617188 224.591796875 763.682617188 299.995117188 c 0
 763.682617188 375.3984375 777.41796875 451.569335938 805.98828125 533.646484375 c 1
665.348632812 614.810546875 m 1
 608.559570312 549.041992188 549.475585938 499.067382812 484.182617188 461.370117188 c 0
 418.889648438 423.673828125 346.069335938 397.4921875 260.717773438 381.196289062 c 1
 665.348632812 614.810546875 l 1
260.688476562 218.81640625 m 1
 346.0546875 202.520507812 418.880859375 176.336914062 484.182617188 138.634765625 c 0
 549.483398438 100.932617188 608.575195312 50.953125 665.37109375 -14.828125 c 1
 260.688476562 218.81640625 l 1
656.1875 436.544921875 m 1
 647.78125 390.625 643.576171875 345.311523438 643.57421875 299.999023438 c 0
 643.572265625 254.685546875 647.7734375 209.373046875 656.180664062 163.452148438 c 1
 620.615234375 193.693359375 583.475585938 219.990234375 544.234375 242.6484375 c 0
 504.994140625 265.305664062 463.651367188 284.322265625 419.6796875 300.001953125 c 1
 463.651367188 315.682617188 504.99609375 334.697265625 544.23828125 357.353515625 c 0
 583.481445312 380.008789062 620.623046875 406.3046875 656.1875 436.544921875 c 1
EndSplineSet
EndChar

StartChar: .notdef
Encoding: 1114112 -1 66
Width: 866
Flags: HW
LayerCount: 2
Fore
SplineSet
0 -123.62109375 m 1
 0 723.626953125 l 1
 366.869140625 300 l 1
 0 -123.62109375 l 1
799.87890625 -200 m 1
 66.14453125 -200 l 1
 433.01171875 223.623046875 l 1
 799.87890625 -200 l 1
499.158203125 300 m 1
 866.025390625 723.623046875 l 1
 866.025390625 -123.6171875 l 1
 499.158203125 300 l 1
66.140625 800 m 1
 799.880859375 800 l 1
 433.01171875 376.376953125 l 1
 66.140625 800 l 1
EndSplineSet
EndChar

StartChar: Alpha
Encoding: 913 913 75
Width: 1000
Flags: H
LayerCount: 2
Fore
SplineSet
60.037109375 739.962890625 m 1
 939.965820312 739.962890625 l 1
 939.965820312 -139.965820312 l 1
 60.037109375 -139.965820312 l 1
 60.037109375 739.962890625 l 1
EndSplineSet
EndChar

StartChar: alpha
Encoding: 945 945 76
Width: 1000
Flags: H
LayerCount: 2
Fore
SplineSet
60.037109375 739.962890625 m 1
 439.9609375 739.962890625 l 1
 439.9609375 360.0390625 l 1
 60.037109375 360.0390625 l 1
 60.037109375 739.962890625 l 1
560.034179688 739.962890625 m 1
 939.965820312 739.962890625 l 1
 939.965820312 360.0390625 l 1
 560.034179688 360.0390625 l 1
 560.034179688 739.962890625 l 1
60.037109375 239.965820312 m 1
 439.9609375 239.965820312 l 1
 439.9609375 -139.965820312 l 1
 60.037109375 -139.965820312 l 1
 60.037109375 239.965820312 l 1
560.034179688 239.965820312 m 1
 939.965820312 239.965820312 l 1
 939.965820312 -139.965820312 l 1
 560.034179688 -139.965820312 l 1
 560.034179688 239.965820312 l 1
EndSplineSet
EndChar

StartChar: Beta
Encoding: 914 914 77
Width: 1000
Flags: H
LayerCount: 2
Fore
SplineSet
164.025390625 635.974609375 m 1
 590.01953125 390.024414062 l 1
 835.9765625 -35.9765625 l 1
 409.975585938 209.98046875 l 1
 164.025390625 635.974609375 l 1
224.0625 739.962890625 m 1
 855.05859375 739.962890625 l 1
 624.094726562 509.005859375 l 1
 224.0625 739.962890625 l 1
939.965820312 655.056640625 m 1
 939.965820312 24.052734375 l 1
 709.000976562 424.099609375 l 1
 939.965820312 655.056640625 l 1
60.037109375 575.9375 m 1
 290.994140625 175.905273438 l 1
 60.037109375 -55.05859375 l 1
 60.037109375 575.9375 l 1
375.900390625 90.9990234375 m 1
 775.947265625 -139.965820312 l 1
 144.943359375 -139.965820312 l 1
 375.900390625 90.9990234375 l 1
EndSplineSet
EndChar

StartChar: beta
Encoding: 946 946 78
Width: 1000
Flags: H
LayerCount: 2
Fore
SplineSet
835.969726562 635.966796875 m 1
 590.01953125 209.98046875 l 1
 164.033203125 -35.9697265625 l 1
 409.975585938 390.024414062 l 1
 835.969726562 635.966796875 l 1
144.943359375 739.962890625 m 1
 775.924804688 739.962890625 l 1
 375.900390625 509.005859375 l 1
 144.943359375 739.962890625 l 1
60.037109375 655.056640625 m 1
 290.994140625 424.099609375 l 1
 60.037109375 24.0751953125 l 1
 60.037109375 655.056640625 l 1
939.965820312 575.9453125 m 1
 939.965820312 -55.05859375 l 1
 709.000976562 175.905273438 l 1
 939.965820312 575.9453125 l 1
624.094726562 90.9990234375 m 1
 855.05859375 -139.965820312 l 1
 224.0546875 -139.965820312 l 1
 624.094726562 90.9990234375 l 1
EndSplineSet
EndChar

StartChar: Gamma
Encoding: 915 915 79
Width: 1000
Flags: H
LayerCount: 2
Fore
SplineSet
60.037109375 739.962890625 m 1
 232.854492188 739.962890625 l 1
 232.854492188 567.145507812 l 1
 60.037109375 567.145507812 l 1
 60.037109375 739.962890625 l 1
767.140625 32.859375 m 1
 939.965820312 32.859375 l 1
 939.965820312 -139.965820312 l 1
 767.140625 -139.965820312 l 1
 767.140625 32.859375 l 1
60.037109375 447.072265625 m 1
 268.021484375 447.072265625 l 1
 647.067382812 68.0263671875 l 1
 647.067382812 -139.965820312 l 1
 60.037109375 -139.965820312 l 1
 60.037109375 447.072265625 l 1
352.927734375 739.962890625 m 1
 939.965820312 739.962890625 l 1
 939.965820312 152.932617188 l 1
 731.973632812 152.932617188 l 1
 352.927734375 531.978515625 l 1
 352.927734375 739.962890625 l 1
EndSplineSet
EndChar

StartChar: gamma
Encoding: 947 947 80
Width: 1000
Flags: H
LayerCount: 2
Fore
SplineSet
767.140625 739.962890625 m 1
 939.965820312 739.962890625 l 1
 939.965820312 567.145507812 l 1
 767.140625 567.145507812 l 1
 767.140625 739.962890625 l 1
60.037109375 32.859375 m 1
 232.854492188 32.859375 l 1
 232.854492188 -139.965820312 l 1
 60.037109375 -139.965820312 l 1
 60.037109375 32.859375 l 1
731.973632812 447.072265625 m 1
 939.965820312 447.072265625 l 1
 939.965820312 -139.965820312 l 1
 352.927734375 -139.965820312 l 1
 352.927734375 68.0263671875 l 1
 731.973632812 447.072265625 l 1
60.037109375 739.962890625 m 1
 647.067382812 739.962890625 l 1
 647.067382812 531.978515625 l 1
 268.021484375 152.932617188 l 1
 60.037109375 152.932617188 l 1
 60.037109375 739.962890625 l 1
EndSplineSet
EndChar

StartChar: uni0394
Encoding: 916 916 81
Width: 1000
Flags: H
LayerCount: 2
Fore
SplineSet
60.037109375 739.962890625 m 1
 606.62890625 739.962890625 l 1
 606.62890625 526.700195312 l 1
 273.299804688 526.700195312 l 1
 273.299804688 193.37109375 l 1
 60.037109375 193.37109375 l 1
 60.037109375 739.962890625 l 1
393.374023438 406.625976562 m 1
 606.62890625 406.625976562 l 1
 606.62890625 193.37109375 l 1
 393.374023438 193.37109375 l 1
 393.374023438 406.625976562 l 1
726.703125 406.625976562 m 1
 939.965820312 406.625976562 l 1
 939.965820312 -139.965820312 l 1
 393.374023438 -139.965820312 l 1
 393.374023438 73.296875 l 1
 726.703125 73.296875 l 1
 726.703125 406.625976562 l 1
726.703125 739.962890625 m 1
 939.965820312 739.962890625 l 1
 939.965820312 526.700195312 l 1
 726.703125 526.700195312 l 1
 726.703125 739.962890625 l 1
60.037109375 73.296875 m 1
 273.299804688 73.296875 l 1
 273.299804688 -139.965820312 l 1
 60.037109375 -139.965820312 l 1
 60.037109375 73.296875 l 1
EndSplineSet
EndChar

StartChar: delta
Encoding: 948 948 82
Width: 1000
Flags: H
LayerCount: 2
Fore
SplineSet
393.374023438 739.962890625 m 1
 939.965820312 739.962890625 l 1
 939.965820312 193.37109375 l 1
 726.703125 193.37109375 l 1
 726.703125 526.700195312 l 1
 393.374023438 526.700195312 l 1
 393.374023438 739.962890625 l 1
393.374023438 406.625976562 m 1
 606.62890625 406.625976562 l 1
 606.62890625 193.37109375 l 1
 393.374023438 193.37109375 l 1
 393.374023438 406.625976562 l 1
60.037109375 406.625976562 m 1
 273.299804688 406.625976562 l 1
 273.299804688 73.296875 l 1
 606.62890625 73.296875 l 1
 606.62890625 -139.965820312 l 1
 60.037109375 -139.965820312 l 1
 60.037109375 406.625976562 l 1
60.037109375 739.962890625 m 1
 273.299804688 739.962890625 l 1
 273.299804688 526.700195312 l 1
 60.037109375 526.700195312 l 1
 60.037109375 739.962890625 l 1
726.703125 73.296875 m 1
 939.965820312 73.296875 l 1
 939.965820312 -139.965820312 l 1
 726.703125 -139.965820312 l 1
 726.703125 73.296875 l 1
EndSplineSet
EndChar

StartChar: Epsilon
Encoding: 917 917 83
Width: 1000
Flags: H
LayerCount: 2
Fore
SplineSet
60.037109375 739.962890625 m 1
 189.965820312 739.962890625 l 1
 189.965820312 -139.965820312 l 1
 60.037109375 -139.965820312 l 1
 60.037109375 739.962890625 l 1
310.0390625 739.962890625 m 1
 439.9609375 739.962890625 l 1
 439.9609375 -139.965820312 l 1
 310.0390625 -139.965820312 l 1
 310.0390625 739.962890625 l 1
560.034179688 739.962890625 m 1
 689.962890625 739.962890625 l 1
 689.962890625 -139.965820312 l 1
 560.034179688 -139.965820312 l 1
 560.034179688 739.962890625 l 1
810.037109375 739.962890625 m 1
 939.965820312 739.962890625 l 1
 939.965820312 -139.965820312 l 1
 810.037109375 -139.965820312 l 1
 810.037109375 739.962890625 l 1
EndSplineSet
EndChar

StartChar: epsilon
Encoding: 949 949 84
Width: 1000
Flags: H
LayerCount: 2
Fore
SplineSet
60.037109375 739.962890625 m 1
 939.965820312 739.962890625 l 1
 939.965820312 610.034179688 l 1
 60.037109375 610.034179688 l 1
 60.037109375 739.962890625 l 1
60.037109375 489.9609375 m 1
 939.965820312 489.9609375 l 1
 939.965820312 360.0390625 l 1
 60.037109375 360.0390625 l 1
 60.037109375 489.9609375 l 1
60.037109375 239.965820312 m 1
 939.965820312 239.965820312 l 1
 939.965820312 110.037109375 l 1
 60.037109375 110.037109375 l 1
 60.037109375 239.965820312 l 1
60.037109375 -10.037109375 m 1
 939.965820312 -10.037109375 l 1
 939.965820312 -139.965820312 l 1
 60.037109375 -139.965820312 l 1
 60.037109375 -10.037109375 l 1
EndSplineSet
EndChar

StartChar: Zeta
Encoding: 918 918 85
Width: 1000
Flags: H
LayerCount: 2
Fore
SplineSet
60.037109375 739.962890625 m 1
 273.299804688 739.962890625 l 1
 273.299804688 -139.965820312 l 1
 60.037109375 -139.965820312 l 1
 60.037109375 739.962890625 l 1
393.374023438 739.962890625 m 1
 606.62890625 739.962890625 l 1
 606.62890625 -139.965820312 l 1
 393.374023438 -139.965820312 l 1
 393.374023438 739.962890625 l 1
726.703125 739.962890625 m 1
 939.965820312 739.962890625 l 1
 939.965820312 -139.965820312 l 1
 726.703125 -139.965820312 l 1
 726.703125 739.962890625 l 1
EndSplineSet
EndChar

StartChar: zeta
Encoding: 950 950 86
Width: 1000
Flags: H
LayerCount: 2
Fore
SplineSet
60.037109375 739.962890625 m 1
 939.965820312 739.962890625 l 1
 939.965820312 526.700195312 l 1
 60.037109375 526.700195312 l 1
 60.037109375 739.962890625 l 1
60.037109375 406.625976562 m 1
 939.965820312 406.625976562 l 1
 939.965820312 193.37109375 l 1
 60.037109375 193.37109375 l 1
 60.037109375 406.625976562 l 1
60.037109375 73.296875 m 1
 939.965820312 73.296875 l 1
 939.965820312 -139.965820312 l 1
 60.037109375 -139.965820312 l 1
 60.037109375 73.296875 l 1
EndSplineSet
EndChar

StartChar: Eta
Encoding: 919 919 87
Width: 1000
Flags: H
LayerCount: 2
Fore
SplineSet
60.037109375 739.962890625 m 1
 439.9609375 739.962890625 l 1
 439.9609375 -139.965820312 l 1
 60.037109375 -139.965820312 l 1
 60.037109375 739.962890625 l 1
560.034179688 739.962890625 m 1
 939.965820312 739.962890625 l 1
 939.965820312 -139.965820312 l 1
 560.034179688 -139.965820312 l 1
 560.034179688 739.962890625 l 1
EndSplineSet
EndChar

StartChar: eta
Encoding: 951 951 88
Width: 1000
Flags: H
LayerCount: 2
Fore
SplineSet
60.037109375 739.962890625 m 1
 939.965820312 739.962890625 l 1
 939.965820312 360.0390625 l 1
 60.037109375 360.0390625 l 1
 60.037109375 739.962890625 l 1
60.037109375 239.965820312 m 1
 939.965820312 239.965820312 l 1
 939.965820312 -139.965820312 l 1
 60.037109375 -139.965820312 l 1
 60.037109375 239.965820312 l 1
EndSplineSet
EndChar

StartChar: Theta
Encoding: 920 920 89
Width: 1000
Flags: H
LayerCount: 2
Fore
SplineSet
394.946289062 739.962890625 m 1
 605.056640625 739.962890625 l 1
 499.998046875 634.904296875 l 1
 394.946289062 739.962890625 l 1
499.998046875 -34.90625 m 1
 605.056640625 -139.965820312 l 1
 394.946289062 -139.965820312 l 1
 499.998046875 -34.90625 l 1
60.037109375 405.053710938 m 1
 165.095703125 300.001953125 l 1
 60.037109375 194.943359375 l 1
 60.037109375 405.053710938 l 1
939.965820312 405.053710938 m 1
 939.965820312 194.943359375 l 1
 834.90625 300.001953125 l 1
 939.965820312 405.053710938 l 1
499.998046875 465.090820312 m 1
 665.09375 300.001953125 l 1
 499.998046875 134.90625 l 1
 334.909179688 300.001953125 l 1
 499.998046875 465.090820312 l 1
774.869140625 739.962890625 m 1
 939.965820312 739.962890625 l 1
 939.965820312 574.8671875 l 1
 750 384.909179688 l 1
 584.904296875 549.997070312 l 1
 774.869140625 739.962890625 l 1
750 215.095703125 m 1
 939.965820312 25.130859375 l 1
 939.965820312 -139.965820312 l 1
 774.869140625 -139.965820312 l 1
 584.904296875 50 l 1
 750 215.095703125 l 1
60.037109375 739.962890625 m 1
 225.1328125 739.962890625 l 1
 415.090820312 549.997070312 l 1
 250.002929688 384.909179688 l 1
 60.037109375 574.8671875 l 1
 60.037109375 739.962890625 l 1
250.002929688 215.095703125 m 1
 415.090820312 50 l 1
 225.1328125 -139.965820312 l 1
 60.037109375 -139.965820312 l 1
 60.037109375 25.130859375 l 1
 250.002929688 215.095703125 l 1
EndSplineSet
EndChar

StartChar: theta
Encoding: 952 952 90
Width: 1000
Flags: H
LayerCount: 2
Fore
SplineSet
499.998046875 548.424804688 m 1
 748.427734375 300.001953125 l 1
 499.998046875 51.572265625 l 1
 251.575195312 300.001953125 l 1
 499.998046875 548.424804688 l 1
60.037109375 321.727539062 m 1
 81.76171875 300.001953125 l 1
 60.037109375 278.27734375 l 1
 60.037109375 321.727539062 l 1
166.66796875 215.095703125 m 1
 415.090820312 -33.333984375 l 1
 308.459960938 -139.965820312 l 1
 60.037109375 -139.965820312 l 1
 60.037109375 108.46484375 l 1
 166.66796875 215.095703125 l 1
499.998046875 -118.240234375 m 1
 521.72265625 -139.965820312 l 1
 478.272460938 -139.965820312 l 1
 499.998046875 -118.240234375 l 1
833.333984375 215.095703125 m 1
 939.965820312 108.46484375 l 1
 939.965820312 -139.965820312 l 1
 691.53515625 -139.965820312 l 1
 584.904296875 -33.333984375 l 1
 833.333984375 215.095703125 l 1
939.965820312 321.727539062 m 1
 939.965820312 278.27734375 l 1
 918.240234375 300.001953125 l 1
 939.965820312 321.727539062 l 1
691.53515625 739.962890625 m 1
 939.965820312 739.962890625 l 1
 939.965820312 491.533203125 l 1
 833.333984375 384.909179688 l 1
 584.904296875 633.33203125 l 1
 691.53515625 739.962890625 l 1
478.272460938 739.962890625 m 1
 521.72265625 739.962890625 l 1
 499.998046875 718.23828125 l 1
 478.272460938 739.962890625 l 1
60.037109375 739.962890625 m 1
 308.459960938 739.962890625 l 1
 415.090820312 633.33203125 l 1
 166.66796875 384.909179688 l 1
 60.037109375 491.533203125 l 1
 60.037109375 739.962890625 l 1
EndSplineSet
EndChar

StartChar: Iota
Encoding: 921 921 91
Width: 1000
Flags: H
LayerCount: 2
Fore
SplineSet
60.037109375 739.962890625 m 1
 689.962890625 739.962890625 l 1
 689.962890625 610.034179688 l 1
 439.9609375 610.034179688 l 1
 439.9609375 360.0390625 l 1
 310.0390625 360.0390625 l 1
 310.0390625 610.034179688 l 1
 60.037109375 610.034179688 l 1
 60.037109375 739.962890625 l 1
810.037109375 739.962890625 m 1
 939.965820312 739.962890625 l 1
 939.965820312 110.037109375 l 1
 810.037109375 110.037109375 l 1
 810.037109375 360.0390625 l 1
 560.034179688 360.0390625 l 1
 560.034179688 489.9609375 l 1
 810.037109375 489.9609375 l 1
 810.037109375 739.962890625 l 1
560.034179688 239.965820312 m 1
 689.962890625 239.965820312 l 1
 689.962890625 -10.037109375 l 1
 939.965820312 -10.037109375 l 1
 939.965820312 -139.965820312 l 1
 310.0390625 -139.965820312 l 1
 310.0390625 -10.037109375 l 1
 560.034179688 -10.037109375 l 1
 560.034179688 239.965820312 l 1
60.037109375 489.9609375 m 1
 189.965820312 489.9609375 l 1
 189.965820312 239.965820312 l 1
 439.9609375 239.965820312 l 1
 439.9609375 110.037109375 l 1
 189.965820312 110.037109375 l 1
 189.965820312 -139.965820312 l 1
 60.037109375 -139.965820312 l 1
 60.037109375 489.9609375 l 1
EndSplineSet
EndChar

StartChar: iota
Encoding: 953 953 92
Width: 1000
Flags: H
LayerCount: 2
Fore
SplineSet
310.0390625 739.962890625 m 1
 939.965820312 739.962890625 l 1
 939.965820312 610.034179688 l 1
 689.962890625 610.034179688 l 1
 689.962890625 360.0390625 l 1
 560.041992188 360.0390625 l 1
 560.041992188 610.034179688 l 1
 310.0390625 610.034179688 l 1
 310.0390625 739.962890625 l 1
60.037109375 739.962890625 m 1
 189.965820312 739.962890625 l 1
 189.965820312 489.9609375 l 1
 439.967773438 489.9609375 l 1
 439.967773438 360.0390625 l 1
 189.965820312 360.0390625 l 1
 189.965820312 110.037109375 l 1
 60.037109375 110.037109375 l 1
 60.037109375 739.962890625 l 1
310.0390625 239.965820312 m 1
 439.967773438 239.965820312 l 1
 439.967773438 -10.037109375 l 1
 689.962890625 -10.037109375 l 1
 689.962890625 -139.965820312 l 1
 60.037109375 -139.965820312 l 1
 60.037109375 -10.037109375 l 1
 310.0390625 -10.037109375 l 1
 310.0390625 239.965820312 l 1
810.037109375 489.9609375 m 1
 939.965820312 489.9609375 l 1
 939.965820312 -139.965820312 l 1
 810.037109375 -139.965820312 l 1
 810.037109375 110.037109375 l 1
 560.041992188 110.037109375 l 1
 560.041992188 239.965820312 l 1
 810.037109375 239.965820312 l 1
 810.037109375 489.9609375 l 1
EndSplineSet
EndChar

StartChar: Kappa
Encoding: 922 922 93
Width: 1000
Flags: H
LayerCount: 2
Fore
SplineSet
144.943359375 739.962890625 m 1
 902.864257812 739.962890625 l 1
 712.8984375 360.0390625 l 1
 524.8671875 360.0390625 l 1
 144.943359375 739.962890625 l 1
60.037109375 655.056640625 m 1
 439.9609375 275.1328125 l 1
 439.9609375 87.1015625 l 1
 60.037109375 -102.864257812 l 1
 60.037109375 655.056640625 l 1
560.034179688 239.965820312 m 1
 712.8984375 239.965820312 l 1
 865.762695312 -65.7626953125 l 1
 560.034179688 87.1015625 l 1
 560.034179688 239.965820312 l 1
939.965820312 545.686523438 m 1
 939.965820312 54.310546875 l 1
 817.124023438 300.001953125 l 1
 939.965820312 545.686523438 l 1
499.998046875 -17.1240234375 m 1
 745.689453125 -139.965820312 l 1
 254.313476562 -139.965820312 l 1
 499.998046875 -17.1240234375 l 1
EndSplineSet
EndChar

StartChar: kappa
Encoding: 954 954 94
Width: 1000
Flags: H
LayerCount: 2
Fore
SplineSet
97.138671875 739.962890625 m 1
 855.05859375 739.962890625 l 1
 475.135742188 360.0390625 l 1
 287.103515625 360.0390625 l 1
 97.138671875 739.962890625 l 1
939.965820312 655.056640625 m 1
 939.965820312 -102.864257812 l 1
 560.041992188 87.1015625 l 1
 560.041992188 275.1328125 l 1
 939.965820312 655.056640625 l 1
287.103515625 239.965820312 m 1
 439.967773438 239.965820312 l 1
 439.967773438 87.1015625 l 1
 134.239257812 -65.7626953125 l 1
 287.103515625 239.965820312 l 1
60.037109375 545.686523438 m 1
 182.87890625 300.001953125 l 1
 60.037109375 54.310546875 l 1
 60.037109375 545.686523438 l 1
500.004882812 -17.1240234375 m 1
 745.689453125 -139.965820312 l 1
 254.313476562 -139.965820312 l 1
 500.004882812 -17.1240234375 l 1
EndSplineSet
EndChar

StartChar: Lambda
Encoding: 923 923 95
Width: 1000
Flags: H
LayerCount: 2
Fore
SplineSet
524.8671875 239.958007812 m 1
 712.8984375 239.958007812 l 1
 902.864257812 -139.965820312 l 1
 144.943359375 -139.965820312 l 1
 524.8671875 239.958007812 l 1
60.037109375 702.861328125 m 1
 439.9609375 512.896484375 l 1
 439.9609375 324.864257812 l 1
 60.037109375 -55.05859375 l 1
 60.037109375 702.861328125 l 1
865.762695312 665.760742188 m 1
 712.8984375 360.032226562 l 1
 560.034179688 360.032226562 l 1
 560.034179688 512.896484375 l 1
 865.762695312 665.760742188 l 1
939.965820312 545.686523438 m 1
 939.965820312 54.310546875 l 1
 817.124023438 299.995117188 l 1
 939.965820312 545.686523438 l 1
254.313476562 739.962890625 m 1
 745.689453125 739.962890625 l 1
 499.998046875 617.12109375 l 1
 254.313476562 739.962890625 l 1
EndSplineSet
EndChar

StartChar: lambda
Encoding: 955 955 96
Width: 1000
Flags: H
LayerCount: 2
Fore
SplineSet
287.103515625 239.958007812 m 1
 475.135742188 239.958007812 l 1
 855.05859375 -139.965820312 l 1
 97.138671875 -139.965820312 l 1
 287.103515625 239.958007812 l 1
939.965820312 702.861328125 m 1
 939.965820312 -55.05859375 l 1
 560.041992188 324.864257812 l 1
 560.041992188 512.896484375 l 1
 939.965820312 702.861328125 l 1
134.239257812 665.760742188 m 1
 439.967773438 512.896484375 l 1
 439.967773438 360.032226562 l 1
 287.103515625 360.032226562 l 1
 134.239257812 665.760742188 l 1
60.037109375 545.686523438 m 1
 182.87890625 299.995117188 l 1
 60.037109375 54.310546875 l 1
 60.037109375 545.686523438 l 1
254.313476562 739.962890625 m 1
 745.689453125 739.962890625 l 1
 500.004882812 617.12109375 l 1
 254.313476562 739.962890625 l 1
EndSplineSet
EndChar

StartChar: Mu
Encoding: 924 924 97
Width: 1000
Flags: H
LayerCount: 2
Fore
SplineSet
164.025390625 635.974609375 m 1
 273.034179688 573.036132812 l 1
 335.971679688 464.028320312 l 1
 226.963867188 526.965820312 l 1
 164.025390625 635.974609375 l 1
224.0625 739.962890625 m 1
 355.053710938 739.962890625 l 1
 307.108398438 692.017578125 l 1
 224.0625 739.962890625 l 1
439.9609375 655.056640625 m 1
 439.9609375 524.065429688 l 1
 392.015625 607.111328125 l 1
 439.9609375 655.056640625 l 1
60.037109375 575.9375 m 1
 107.982421875 492.891601562 l 1
 60.037109375 444.946289062 l 1
 60.037109375 575.9375 l 1
192.888671875 407.984375 m 1
 275.934570312 360.0390625 l 1
 144.943359375 360.0390625 l 1
 192.888671875 407.984375 l 1
664.0234375 135.9765625 m 1
 773.0390625 73.0390625 l 1
 835.9765625 -35.9765625 l 1
 726.9609375 26.9609375 l 1
 664.0234375 135.9765625 l 1
724.067382812 239.965820312 m 1
 855.05859375 239.965820312 l 1
 807.11328125 192.020507812 l 1
 724.067382812 239.965820312 l 1
939.965820312 155.05859375 m 1
 939.965820312 24.0673828125 l 1
 892.020507812 107.11328125 l 1
 939.965820312 155.05859375 l 1
560.034179688 75.9326171875 m 1
 607.979492188 -7.11328125 l 1
 560.034179688 -55.05859375 l 1
 560.034179688 75.9326171875 l 1
692.88671875 -92.0205078125 m 1
 775.932617188 -139.965820312 l 1
 644.94140625 -139.965820312 l 1
 692.88671875 -92.0205078125 l 1
835.9765625 635.974609375 m 1
 773.045898438 526.965820312 l 1
 664.0234375 464.028320312 l 1
 726.954101562 573.036132812 l 1
 835.9765625 635.974609375 l 1
939.965820312 575.9375 m 1
 939.965820312 444.946289062 l 1
 892.020507812 492.891601562 l 1
 939.965820312 575.9375 l 1
807.11328125 407.984375 m 1
 855.05859375 360.0390625 l 1
 724.067382812 360.0390625 l 1
 807.11328125 407.984375 l 1
644.94140625 739.962890625 m 1
 775.932617188 739.962890625 l 1
 692.88671875 692.017578125 l 1
 644.94140625 739.962890625 l 1
560.034179688 655.056640625 m 1
 607.979492188 607.111328125 l 1
 560.034179688 524.065429688 l 1
 560.034179688 655.056640625 l 1
335.971679688 135.9765625 m 1
 273.034179688 26.9541015625 l 1
 164.025390625 -35.9765625 l 1
 226.963867188 73.0458984375 l 1
 335.971679688 135.9765625 l 1
439.9609375 75.9326171875 m 1
 439.9609375 -55.05859375 l 1
 392.015625 -7.11328125 l 1
 439.9609375 75.9326171875 l 1
307.108398438 -92.0205078125 m 1
 355.053710938 -139.965820312 l 1
 224.0625 -139.965820312 l 1
 307.108398438 -92.0205078125 l 1
144.943359375 239.965820312 m 1
 275.934570312 239.965820312 l 1
 192.888671875 192.020507812 l 1
 144.943359375 239.965820312 l 1
60.037109375 155.05859375 m 1
 107.982421875 107.11328125 l 1
 60.037109375 24.0673828125 l 1
 60.037109375 155.05859375 l 1
EndSplineSet
EndChar

StartChar: uni03BC
Encoding: 956 956 98
Width: 1000
Flags: H
LayerCount: 2
Fore
SplineSet
144.943359375 739.962890625 m 1
 855.05859375 739.962890625 l 1
 499.998046875 384.909179688 l 1
 144.943359375 739.962890625 l 1
939.965820312 655.056640625 m 1
 939.965820312 -55.05859375 l 1
 584.904296875 300.001953125 l 1
 939.965820312 655.056640625 l 1
60.037109375 655.056640625 m 1
 415.090820312 300.001953125 l 1
 60.037109375 -55.05859375 l 1
 60.037109375 655.056640625 l 1
499.998046875 215.095703125 m 1
 855.05859375 -139.965820312 l 1
 144.943359375 -139.965820312 l 1
 499.998046875 215.095703125 l 1
EndSplineSet
EndChar

StartChar: Nu
Encoding: 925 925 99
Width: 1000
Flags: H
LayerCount: 2
Fore
SplineSet
499.998046875 -17.1240234375 m 1
 745.689453125 -139.965820312 l 1
 254.313476562 -139.965820312 l 1
 499.998046875 -17.1240234375 l 1
254.313476562 739.962890625 m 1
 745.689453125 739.962890625 l 1
 499.998046875 617.12109375 l 1
 254.313476562 739.962890625 l 1
60.037109375 702.861328125 m 1
 439.9609375 512.896484375 l 1
 439.9609375 87.1015625 l 1
 60.037109375 -102.864257812 l 1
 60.037109375 702.861328125 l 1
939.965820312 702.861328125 m 1
 939.965820312 -102.864257812 l 1
 560.034179688 87.1015625 l 1
 560.034179688 512.896484375 l 1
 939.965820312 702.861328125 l 1
EndSplineSet
EndChar

StartChar: nu
Encoding: 957 957 100
Width: 1000
Flags: H
LayerCount: 2
Fore
SplineSet
60.037109375 545.686523438 m 1
 182.87890625 300.001953125 l 1
 60.037109375 54.310546875 l 1
 60.037109375 545.686523438 l 1
939.965820312 545.686523438 m 1
 939.965820312 54.310546875 l 1
 817.124023438 300.001953125 l 1
 939.965820312 545.686523438 l 1
97.138671875 739.962890625 m 1
 902.864257812 739.962890625 l 1
 712.8984375 360.0390625 l 1
 287.103515625 360.0390625 l 1
 97.138671875 739.962890625 l 1
287.103515625 239.965820312 m 1
 712.8984375 239.965820312 l 1
 902.864257812 -139.965820312 l 1
 97.138671875 -139.965820312 l 1
 287.103515625 239.965820312 l 1
EndSplineSet
EndChar

StartChar: Xi
Encoding: 926 926 101
Width: 1000
Flags: H
LayerCount: 2
Fore
SplineSet
60.037109375 739.962890625 m 1
 355.053710938 739.962890625 l 1
 60.037109375 444.946289062 l 1
 60.037109375 739.962890625 l 1
60.037109375 155.05859375 m 1
 355.053710938 -139.965820312 l 1
 60.037109375 -139.965820312 l 1
 60.037109375 155.05859375 l 1
939.965820312 155.05859375 m 1
 939.965820312 -139.965820312 l 1
 644.94140625 -139.965820312 l 1
 939.965820312 155.05859375 l 1
644.94140625 739.962890625 m 1
 939.965820312 739.962890625 l 1
 939.965820312 444.946289062 l 1
 644.94140625 739.962890625 l 1
499.998046875 715.09375 m 1
 915.095703125 300.001953125 l 1
 499.998046875 -115.095703125 l 1
 84.90625 300.001953125 l 1
 499.998046875 715.09375 l 1
EndSplineSet
EndChar

StartChar: xi
Encoding: 958 958 102
Width: 1000
Flags: H
LayerCount: 2
Fore
SplineSet
144.943359375 739.962890625 m 1
 855.05859375 739.962890625 l 1
 768.01953125 652.922851562 l 1
 231.983398438 652.922851562 l 1
 144.943359375 739.962890625 l 1
231.983398438 -52.92578125 m 1
 768.01953125 -52.92578125 l 1
 855.05859375 -139.965820312 l 1
 144.943359375 -139.965820312 l 1
 231.983398438 -52.92578125 l 1
60.037109375 655.056640625 m 1
 147.077148438 568.016601562 l 1
 147.077148438 31.98046875 l 1
 60.037109375 -55.05859375 l 1
 60.037109375 655.056640625 l 1
939.965820312 655.056640625 m 1
 939.965820312 -55.05859375 l 1
 852.92578125 31.98046875 l 1
 852.92578125 568.016601562 l 1
 939.965820312 655.056640625 l 1
267.150390625 532.849609375 m 1
 732.8515625 532.849609375 l 1
 732.8515625 67.1484375 l 1
 267.150390625 67.1484375 l 1
 267.150390625 532.849609375 l 1
EndSplineSet
EndChar

StartChar: Eacute
Encoding: 201 201 103
Width: 866
Flags: HW
LayerCount: 2
Fore
SplineSet
276.540039062 321.01171875 m 1
 312.940429688 300.001953125 l 1
 276.540039062 278.986328125 l 1
 276.540039062 321.01171875 l 1
433.014648438 230.678710938 m 1
 529.451171875 174.997070312 l 1
 60.037109375 -96.013671875 l 1
 60.037109375 15.341796875 l 1
 433.014648438 230.678710938 l 1
276.540039062 571.006835938 m 1
 745.947265625 299.995117188 l 1
 649.517578125 244.321289062 l 1
 276.540039062 459.658203125 l 1
 276.540039062 571.006835938 l 1
60.037109375 696.01171875 m 1
 156.466796875 640.336914062 l 1
 156.466796875 209.663085938 l 1
 60.037109375 153.98828125 l 1
 60.037109375 696.01171875 l 1
EndSplineSet
EndChar

StartChar: eacute
Encoding: 233 233 104
Width: 866
Flags: HW
LayerCount: 2
Fore
SplineSet
589.48046875 321.01171875 m 1
 589.48046875 278.986328125 l 1
 553.087890625 300.001953125 l 1
 589.48046875 321.01171875 l 1
433.014648438 230.678710938 m 1
 805.991210938 15.341796875 l 1
 805.991210938 -96.0068359375 l 1
 336.584960938 175.004882812 l 1
 433.014648438 230.678710938 l 1
589.48046875 571.013671875 m 1
 589.48046875 459.658203125 l 1
 216.50390625 244.321289062 l 1
 120.06640625 300.001953125 l 1
 589.48046875 571.013671875 l 1
805.991210938 696.01171875 m 1
 805.991210938 153.98828125 l 1
 709.5546875 209.663085938 l 1
 709.5546875 640.336914062 l 1
 805.991210938 696.01171875 l 1
EndSplineSet
EndChar

StartChar: sigma1
Encoding: 962 962 105
Width: 1000
Flags: H
LayerCount: 2
Fore
SplineSet
255.87890625 629.028320312 m 1
 307.603515625 607.598632812 l 1
 329.033203125 555.873046875 l 1
 255.87890625 629.028320312 l 1
170.971679688 544.12109375 m 1
 244.126953125 470.966796875 l 1
 192.401367188 492.396484375 l 1
 170.971679688 544.12109375 l 1
301.823242188 739.962890625 m 1
 355.061523438 739.962890625 l 1
 339.463867188 724.372070312 l 1
 301.823242188 739.962890625 l 1
439.9609375 655.048828125 m 1
 439.9609375 601.833007812 l 1
 424.370117188 639.465820312 l 1
 439.9609375 655.048828125 l 1
60.037109375 498.176757812 m 1
 75.6279296875 460.536132812 l 1
 60.037109375 444.938476562 l 1
 60.037109375 498.176757812 l 1
160.534179688 375.629882812 m 1
 198.166992188 360.0390625 l 1
 144.951171875 360.0390625 l 1
 160.534179688 375.629882812 l 1
755.875976562 129.030273438 m 1
 807.600585938 107.600585938 l 1
 829.030273438 55.8759765625 l 1
 755.875976562 129.030273438 l 1
670.969726562 44.1240234375 m 1
 744.124023438 -29.0302734375 l 1
 692.399414062 -7.6005859375 l 1
 670.969726562 44.1240234375 l 1
801.821289062 239.965820312 m 1
 855.05859375 239.965820312 l 1
 839.46875 224.375 l 1
 801.821289062 239.965820312 l 1
939.965820312 155.05859375 m 1
 939.965820312 101.821289062 l 1
 924.375 139.46875 l 1
 939.965820312 155.05859375 l 1
560.034179688 -1.8212890625 m 1
 575.625 -39.46875 l 1
 560.034179688 -55.05859375 l 1
 560.034179688 -1.8212890625 l 1
660.53125 -124.375 m 1
 698.178710938 -139.965820312 l 1
 644.94140625 -139.965820312 l 1
 660.53125 -124.375 l 1
744.116210938 629.028320312 m 1
 670.969726562 555.880859375 l 1
 692.399414062 607.598632812 l 1
 744.116210938 629.028320312 l 1
829.030273438 544.12890625 m 1
 807.600585938 492.396484375 l 1
 755.875976562 470.966796875 l 1
 829.030273438 544.12890625 l 1
644.94140625 739.962890625 m 1
 698.178710938 739.962890625 l 1
 660.53125 724.372070312 l 1
 644.94140625 739.962890625 l 1
560.034179688 655.056640625 m 1
 575.625 639.465820312 l 1
 560.034179688 601.818359375 l 1
 560.034179688 655.056640625 l 1
939.965820312 498.176757812 m 1
 939.965820312 444.938476562 l 1
 924.375 460.536132812 l 1
 939.965820312 498.176757812 l 1
839.46875 375.629882812 m 1
 855.051757812 360.0390625 l 1
 801.8359375 360.0390625 l 1
 839.46875 375.629882812 l 1
244.119140625 129.030273438 m 1
 170.971679688 55.8837890625 l 1
 192.401367188 107.600585938 l 1
 244.119140625 129.030273438 l 1
329.033203125 44.1240234375 m 1
 307.603515625 -7.6005859375 l 1
 255.87109375 -29.0302734375 l 1
 329.033203125 44.1240234375 l 1
144.943359375 239.965820312 m 1
 198.181640625 239.965820312 l 1
 160.534179688 224.375 l 1
 144.943359375 239.965820312 l 1
60.037109375 155.05859375 m 1
 75.6279296875 139.46875 l 1
 60.037109375 101.821289062 l 1
 60.037109375 155.05859375 l 1
439.9609375 -1.8359375 m 1
 439.9609375 -55.0517578125 l 1
 424.370117188 -39.46875 l 1
 439.9609375 -1.8359375 l 1
339.463867188 -124.375 m 1
 355.061523438 -139.965820312 l 1
 301.823242188 -139.965820312 l 1
 339.463867188 -124.375 l 1
EndSplineSet
EndChar

StartChar: Omicron
Encoding: 927 927 106
Width: 1000
Flags: H
LayerCount: 2
Fore
SplineSet
255.87890625 629.028320312 m 1
 661.151367188 461.15625 l 1
 829.030273438 55.8759765625 l 1
 255.87890625 629.028320312 l 1
170.971679688 544.12109375 m 1
 744.124023438 -29.0302734375 l 1
 338.84375 138.848632812 l 1
 170.971679688 544.12109375 l 1
301.823242188 739.962890625 m 1
 855.05859375 739.962890625 l 1
 693.01953125 577.930664062 l 1
 301.823242188 739.962890625 l 1
939.965820312 655.056640625 m 1
 939.965820312 101.821289062 l 1
 777.92578125 493.016601562 l 1
 939.965820312 655.056640625 l 1
60.037109375 498.176757812 m 1
 222.069335938 106.98046875 l 1
 60.037109375 -55.05859375 l 1
 60.037109375 498.176757812 l 1
306.983398438 22.07421875 m 1
 698.178710938 -139.965820312 l 1
 144.943359375 -139.965820312 l 1
 306.983398438 22.07421875 l 1
EndSplineSet
EndChar

StartChar: omicron
Encoding: 959 959 107
Width: 1000
Flags: H
LayerCount: 2
Fore
SplineSet
744.124023438 629.028320312 m 1
 170.971679688 55.8759765625 l 1
 338.84375 461.15625 l 1
 744.124023438 629.028320312 l 1
829.030273438 544.12109375 m 1
 661.151367188 138.848632812 l 1
 255.87890625 -29.0302734375 l 1
 829.030273438 544.12109375 l 1
144.943359375 739.962890625 m 1
 698.171875 739.962890625 l 1
 306.975585938 577.930664062 l 1
 144.943359375 739.962890625 l 1
60.037109375 655.056640625 m 1
 222.069335938 493.024414062 l 1
 60.037109375 101.828125 l 1
 60.037109375 655.056640625 l 1
939.965820312 498.18359375 m 1
 939.965820312 -55.05859375 l 1
 777.92578125 106.98046875 l 1
 939.965820312 498.18359375 l 1
693.01953125 22.07421875 m 1
 855.05859375 -139.965820312 l 1
 301.81640625 -139.965820312 l 1
 693.01953125 22.07421875 l 1
EndSplineSet
EndChar

StartChar: Pi
Encoding: 928 928 108
Width: 1000
Flags: H
LayerCount: 2
Fore
SplineSet
60.037109375 739.962890625 m 1
 855.05859375 739.962890625 l 1
 60.037109375 -55.05859375 l 1
 60.037109375 739.962890625 l 1
829.030273438 544.12109375 m 1
 661.151367188 138.848632812 l 1
 255.87890625 -29.0302734375 l 1
 829.030273438 544.12109375 l 1
939.965820312 498.18359375 m 1
 939.965820312 -55.05859375 l 1
 777.92578125 106.98046875 l 1
 939.965820312 498.18359375 l 1
693.01953125 22.07421875 m 1
 855.05859375 -139.965820312 l 1
 301.81640625 -139.965820312 l 1
 693.01953125 22.07421875 l 1
EndSplineSet
EndChar

StartChar: pi
Encoding: 960 960 109
Width: 1000
Flags: H
LayerCount: 2
Fore
SplineSet
144.943359375 739.962890625 m 1
 939.965820312 739.962890625 l 1
 939.965820312 -55.05859375 l 1
 144.943359375 739.962890625 l 1
170.971679688 544.12109375 m 1
 744.124023438 -29.0302734375 l 1
 338.84375 138.848632812 l 1
 170.971679688 544.12109375 l 1
60.037109375 498.176757812 m 1
 222.069335938 106.98046875 l 1
 60.037109375 -55.05859375 l 1
 60.037109375 498.176757812 l 1
306.983398438 22.07421875 m 1
 698.178710938 -139.965820312 l 1
 144.943359375 -139.965820312 l 1
 306.983398438 22.07421875 l 1
EndSplineSet
EndChar

StartChar: Rho
Encoding: 929 929 110
Width: 1000
Flags: H
LayerCount: 2
Fore
SplineSet
255.87890625 629.028320312 m 1
 661.151367188 461.15625 l 1
 829.030273438 55.8759765625 l 1
 255.87890625 629.028320312 l 1
60.037109375 655.056640625 m 1
 855.05859375 -139.965820312 l 1
 60.037109375 -139.965820312 l 1
 60.037109375 655.056640625 l 1
301.823242188 739.962890625 m 1
 855.05859375 739.962890625 l 1
 693.01953125 577.930664062 l 1
 301.823242188 739.962890625 l 1
939.965820312 655.056640625 m 1
 939.965820312 101.821289062 l 1
 777.92578125 493.016601562 l 1
 939.965820312 655.056640625 l 1
EndSplineSet
EndChar

StartChar: rho
Encoding: 961 961 111
Width: 1000
Flags: H
LayerCount: 2
Fore
SplineSet
744.124023438 629.028320312 m 1
 170.971679688 55.8759765625 l 1
 338.84375 461.15625 l 1
 744.124023438 629.028320312 l 1
939.965820312 655.056640625 m 1
 939.965820312 -139.965820312 l 1
 144.943359375 -139.965820312 l 1
 939.965820312 655.056640625 l 1
144.943359375 739.962890625 m 1
 698.171875 739.962890625 l 1
 306.975585938 577.930664062 l 1
 144.943359375 739.962890625 l 1
60.037109375 655.056640625 m 1
 222.069335938 493.024414062 l 1
 60.037109375 101.828125 l 1
 60.037109375 655.056640625 l 1
EndSplineSet
EndChar

StartChar: Sigma
Encoding: 931 931 112
Width: 1000
Flags: H
LayerCount: 2
Fore
SplineSet
478.272460938 739.962890625 m 1
 521.72265625 739.962890625 l 1
 499.998046875 718.23828125 l 1
 478.272460938 739.962890625 l 1
691.53515625 739.962890625 m 1
 855.05859375 739.962890625 l 1
 666.666015625 551.577148438 l 1
 584.904296875 633.33203125 l 1
 691.53515625 739.962890625 l 1
499.998046875 548.424804688 m 1
 581.759765625 466.670898438 l 1
 499.998046875 384.909179688 l 1
 418.235351562 466.670898438 l 1
 499.998046875 548.424804688 l 1
144.943359375 739.962890625 m 1
 308.459960938 739.962890625 l 1
 415.090820312 633.33203125 l 1
 333.329101562 551.577148438 l 1
 144.943359375 739.962890625 l 1
939.965820312 321.727539062 m 1
 939.965820312 278.27734375 l 1
 918.240234375 300.001953125 l 1
 939.965820312 321.727539062 l 1
939.965820312 655.056640625 m 1
 939.965820312 491.533203125 l 1
 833.333984375 384.909179688 l 1
 751.572265625 466.670898438 l 1
 939.965820312 655.056640625 l 1
833.333984375 215.095703125 m 1
 939.965820312 108.46484375 l 1
 939.965820312 -55.05859375 l 1
 751.572265625 133.333984375 l 1
 833.333984375 215.095703125 l 1
666.666015625 381.764648438 m 1
 748.427734375 300.001953125 l 1
 666.666015625 218.240234375 l 1
 584.904296875 300.001953125 l 1
 666.666015625 381.764648438 l 1
60.037109375 321.727539062 m 1
 81.76171875 300.001953125 l 1
 60.037109375 278.27734375 l 1
 60.037109375 321.727539062 l 1
166.66796875 215.095703125 m 1
 248.422851562 133.333984375 l 1
 60.037109375 -55.05859375 l 1
 60.037109375 108.46484375 l 1
 166.66796875 215.095703125 l 1
333.329101562 48.427734375 m 1
 415.090820312 -33.333984375 l 1
 308.459960938 -139.965820312 l 1
 144.943359375 -139.965820312 l 1
 333.329101562 48.427734375 l 1
499.998046875 -118.240234375 m 1
 521.72265625 -139.965820312 l 1
 478.272460938 -139.965820312 l 1
 499.998046875 -118.240234375 l 1
666.666015625 48.427734375 m 1
 855.05859375 -139.965820312 l 1
 691.53515625 -139.965820312 l 1
 584.904296875 -33.333984375 l 1
 666.666015625 48.427734375 l 1
499.998046875 215.095703125 m 1
 581.759765625 133.333984375 l 1
 499.998046875 51.572265625 l 1
 418.235351562 133.333984375 l 1
 499.998046875 215.095703125 l 1
333.329101562 381.764648438 m 1
 415.090820312 300.001953125 l 1
 333.329101562 218.240234375 l 1
 251.575195312 300.001953125 l 1
 333.329101562 381.764648438 l 1
60.037109375 655.056640625 m 1
 248.422851562 466.670898438 l 1
 166.66796875 384.909179688 l 1
 60.037109375 491.533203125 l 1
 60.037109375 655.056640625 l 1
EndSplineSet
EndChar

StartChar: sigma
Encoding: 963 963 113
Width: 1000
Flags: H
LayerCount: 2
Fore
SplineSet
358.206054688 73.296875 m 1
 641.795898438 73.296875 l 1
 855.05859375 -139.965820312 l 1
 144.943359375 -139.965820312 l 1
 358.206054688 73.296875 l 1
60.037109375 655.056640625 m 1
 273.299804688 441.793945312 l 1
 273.299804688 158.204101562 l 1
 60.037109375 -55.05859375 l 1
 60.037109375 655.056640625 l 1
144.943359375 739.962890625 m 1
 855.05859375 739.962890625 l 1
 641.795898438 526.700195312 l 1
 358.206054688 526.700195312 l 1
 144.943359375 739.962890625 l 1
939.965820312 655.056640625 m 1
 939.965820312 -55.05859375 l 1
 726.703125 158.204101562 l 1
 726.703125 441.793945312 l 1
 939.965820312 655.056640625 l 1
393.374023438 406.625976562 m 1
 606.62890625 406.625976562 l 1
 606.62890625 193.37109375 l 1
 393.374023438 193.37109375 l 1
 393.374023438 406.625976562 l 1
EndSplineSet
EndChar

StartChar: Tau
Encoding: 932 932 114
Width: 1000
Flags: H
LayerCount: 2
Fore
SplineSet
60.037109375 739.962890625 m 1
 189.965820312 739.962890625 l 1
 189.965820312 610.034179688 l 1
 60.037109375 610.034179688 l 1
 60.037109375 739.962890625 l 1
310.0390625 739.962890625 m 1
 439.9609375 739.962890625 l 1
 439.9609375 610.034179688 l 1
 310.0390625 610.034179688 l 1
 310.0390625 739.962890625 l 1
60.037109375 489.9609375 m 1
 189.965820312 489.9609375 l 1
 189.965820312 360.0390625 l 1
 60.037109375 360.0390625 l 1
 60.037109375 489.9609375 l 1
310.0390625 489.9609375 m 1
 439.9609375 489.9609375 l 1
 439.9609375 360.0390625 l 1
 310.0390625 360.0390625 l 1
 310.0390625 489.9609375 l 1
560.034179688 739.962890625 m 1
 689.962890625 739.962890625 l 1
 689.962890625 610.034179688 l 1
 560.034179688 610.034179688 l 1
 560.034179688 739.962890625 l 1
810.037109375 739.962890625 m 1
 939.965820312 739.962890625 l 1
 939.965820312 610.034179688 l 1
 810.037109375 610.034179688 l 1
 810.037109375 739.962890625 l 1
560.034179688 489.9609375 m 1
 689.962890625 489.9609375 l 1
 689.962890625 360.0390625 l 1
 560.034179688 360.0390625 l 1
 560.034179688 489.9609375 l 1
810.037109375 489.9609375 m 1
 939.965820312 489.9609375 l 1
 939.965820312 360.0390625 l 1
 810.037109375 360.0390625 l 1
 810.037109375 489.9609375 l 1
60.037109375 239.965820312 m 1
 189.965820312 239.965820312 l 1
 189.965820312 110.037109375 l 1
 60.037109375 110.037109375 l 1
 60.037109375 239.965820312 l 1
310.0390625 239.965820312 m 1
 439.9609375 239.965820312 l 1
 439.9609375 110.037109375 l 1
 310.0390625 110.037109375 l 1
 310.0390625 239.965820312 l 1
60.037109375 -10.037109375 m 1
 189.965820312 -10.037109375 l 1
 189.965820312 -139.965820312 l 1
 60.037109375 -139.965820312 l 1
 60.037109375 -10.037109375 l 1
310.0390625 -10.037109375 m 1
 439.9609375 -10.037109375 l 1
 439.9609375 -139.965820312 l 1
 310.0390625 -139.965820312 l 1
 310.0390625 -10.037109375 l 1
560.034179688 239.965820312 m 1
 689.962890625 239.965820312 l 1
 689.962890625 110.037109375 l 1
 560.034179688 110.037109375 l 1
 560.034179688 239.965820312 l 1
810.037109375 239.965820312 m 1
 939.965820312 239.965820312 l 1
 939.965820312 110.037109375 l 1
 810.037109375 110.037109375 l 1
 810.037109375 239.965820312 l 1
560.034179688 -10.037109375 m 1
 689.962890625 -10.037109375 l 1
 689.962890625 -139.965820312 l 1
 560.034179688 -139.965820312 l 1
 560.034179688 -10.037109375 l 1
810.037109375 -10.037109375 m 1
 939.965820312 -10.037109375 l 1
 939.965820312 -139.965820312 l 1
 810.037109375 -139.965820312 l 1
 810.037109375 -10.037109375 l 1
EndSplineSet
EndChar

StartChar: tau
Encoding: 964 964 115
Width: 1000
Flags: H
LayerCount: 2
Fore
SplineSet
60.037109375 739.962890625 m 1
 273.299804688 739.962890625 l 1
 273.299804688 526.700195312 l 1
 60.037109375 526.700195312 l 1
 60.037109375 739.962890625 l 1
393.374023438 739.962890625 m 1
 606.62890625 739.962890625 l 1
 606.62890625 526.700195312 l 1
 393.374023438 526.700195312 l 1
 393.374023438 739.962890625 l 1
726.703125 739.962890625 m 1
 939.965820312 739.962890625 l 1
 939.965820312 526.700195312 l 1
 726.703125 526.700195312 l 1
 726.703125 739.962890625 l 1
60.037109375 406.625976562 m 1
 273.299804688 406.625976562 l 1
 273.299804688 193.37109375 l 1
 60.037109375 193.37109375 l 1
 60.037109375 406.625976562 l 1
393.374023438 406.625976562 m 1
 606.62890625 406.625976562 l 1
 606.62890625 193.37109375 l 1
 393.374023438 193.37109375 l 1
 393.374023438 406.625976562 l 1
726.703125 406.625976562 m 1
 939.965820312 406.625976562 l 1
 939.965820312 193.37109375 l 1
 726.703125 193.37109375 l 1
 726.703125 406.625976562 l 1
60.037109375 73.296875 m 1
 273.299804688 73.296875 l 1
 273.299804688 -139.965820312 l 1
 60.037109375 -139.965820312 l 1
 60.037109375 73.296875 l 1
393.374023438 73.296875 m 1
 606.62890625 73.296875 l 1
 606.62890625 -139.965820312 l 1
 393.374023438 -139.965820312 l 1
 393.374023438 73.296875 l 1
726.703125 73.296875 m 1
 939.965820312 73.296875 l 1
 939.965820312 -139.965820312 l 1
 726.703125 -139.965820312 l 1
 726.703125 73.296875 l 1
EndSplineSet
EndChar

StartChar: uni03F0
Encoding: 1008 1008 116
Width: 1000
Flags: H
LayerCount: 2
Fore
SplineSet
644.94140625 739.962890625 m 1
 939.965820312 739.962890625 l 1
 939.965820312 444.946289062 l 1
 644.94140625 739.962890625 l 1
60.037109375 739.962890625 m 1
 355.053710938 739.962890625 l 1
 60.037109375 444.946289062 l 1
 60.037109375 739.962890625 l 1
60.037109375 155.05859375 m 1
 355.053710938 -139.965820312 l 1
 60.037109375 -139.965820312 l 1
 60.037109375 155.05859375 l 1
939.965820312 155.05859375 m 1
 939.965820312 -139.965820312 l 1
 644.94140625 -139.965820312 l 1
 939.965820312 155.05859375 l 1
EndSplineSet
EndChar

StartChar: uni03F1
Encoding: 1009 1009 117
Width: 1000
Flags: H
LayerCount: 2
Fore
SplineSet
939.965820312 655.056640625 m 1
 939.965820312 -139.965820312 l 1
 144.943359375 -139.965820312 l 1
 939.965820312 655.056640625 l 1
EndSplineSet
EndChar

StartChar: uni03F2
Encoding: 1010 1010 118
Width: 1000
Flags: H
LayerCount: 2
Fore
SplineSet
60.037109375 655.056640625 m 1
 855.05859375 -139.965820312 l 1
 60.037109375 -139.965820312 l 1
 60.037109375 655.056640625 l 1
EndSplineSet
EndChar

StartChar: uni03F3
Encoding: 1011 1011 119
Width: 1000
Flags: H
LayerCount: 2
Fore
SplineSet
144.943359375 739.962890625 m 1
 939.965820312 739.962890625 l 1
 939.965820312 -55.05859375 l 1
 144.943359375 739.962890625 l 1
EndSplineSet
EndChar

StartChar: uni03F4
Encoding: 1012 1012 120
Width: 1000
Flags: H
LayerCount: 2
Fore
SplineSet
60.037109375 739.962890625 m 1
 855.05859375 739.962890625 l 1
 60.037109375 -55.05859375 l 1
 60.037109375 739.962890625 l 1
EndSplineSet
EndChar

StartChar: uni03F5
Encoding: 1013 1013 121
Width: 1000
Flags: H
LayerCount: 2
Fore
SplineSet
829.030273438 544.12109375 m 1
 661.151367188 138.848632812 l 1
 255.87890625 -29.0302734375 l 1
 829.030273438 544.12109375 l 1
939.965820312 498.18359375 m 1
 939.965820312 -55.05859375 l 1
 777.92578125 106.98046875 l 1
 939.965820312 498.18359375 l 1
693.01953125 22.07421875 m 1
 855.05859375 -139.965820312 l 1
 301.81640625 -139.965820312 l 1
 693.01953125 22.07421875 l 1
EndSplineSet
EndChar

StartChar: uni03F6
Encoding: 1014 1014 122
Width: 1000
Flags: H
LayerCount: 2
Fore
SplineSet
170.971679688 544.12109375 m 1
 744.124023438 -29.0302734375 l 1
 338.84375 138.848632812 l 1
 170.971679688 544.12109375 l 1
60.037109375 498.176757812 m 1
 222.069335938 106.98046875 l 1
 60.037109375 -55.05859375 l 1
 60.037109375 498.176757812 l 1
306.983398438 22.07421875 m 1
 698.178710938 -139.965820312 l 1
 144.943359375 -139.965820312 l 1
 306.983398438 22.07421875 l 1
EndSplineSet
EndChar

StartChar: uni03F7
Encoding: 1015 1015 123
Width: 1000
Flags: H
LayerCount: 2
Fore
SplineSet
255.87890625 629.028320312 m 1
 661.151367188 461.15625 l 1
 829.030273438 55.8759765625 l 1
 255.87890625 629.028320312 l 1
301.823242188 739.962890625 m 1
 855.05859375 739.962890625 l 1
 693.01953125 577.930664062 l 1
 301.823242188 739.962890625 l 1
939.965820312 655.056640625 m 1
 939.965820312 101.821289062 l 1
 777.92578125 493.016601562 l 1
 939.965820312 655.056640625 l 1
EndSplineSet
EndChar

StartChar: uni03F8
Encoding: 1016 1016 124
Width: 1000
Flags: H
LayerCount: 2
Fore
SplineSet
744.124023438 629.028320312 m 1
 170.971679688 55.8759765625 l 1
 338.84375 461.15625 l 1
 744.124023438 629.028320312 l 1
144.943359375 739.962890625 m 1
 698.171875 739.962890625 l 1
 306.975585938 577.930664062 l 1
 144.943359375 739.962890625 l 1
60.037109375 655.056640625 m 1
 222.069335938 493.024414062 l 1
 60.037109375 101.828125 l 1
 60.037109375 655.056640625 l 1
EndSplineSet
EndChar

StartChar: uni03F9
Encoding: 1017 1017 125
Width: 1000
Flags: H
LayerCount: 2
Fore
SplineSet
60.037109375 655.056640625 m 1
 165.095703125 549.997070312 l 1
 60.037109375 444.946289062 l 1
 60.037109375 655.056640625 l 1
144.943359375 739.962890625 m 1
 355.053710938 739.962890625 l 1
 250.002929688 634.904296875 l 1
 144.943359375 739.962890625 l 1
644.94140625 739.962890625 m 1
 855.05859375 739.962890625 l 1
 750 634.904296875 l 1
 644.94140625 739.962890625 l 1
939.965820312 655.056640625 m 1
 939.965820312 444.946289062 l 1
 834.90625 549.997070312 l 1
 939.965820312 655.056640625 l 1
939.965820312 155.05859375 m 1
 939.965820312 -55.05859375 l 1
 834.90625 50 l 1
 939.965820312 155.05859375 l 1
750 -34.90625 m 1
 855.05859375 -139.965820312 l 1
 644.94140625 -139.965820312 l 1
 750 -34.90625 l 1
250.002929688 -34.90625 m 1
 355.053710938 -139.965820312 l 1
 144.943359375 -139.965820312 l 1
 250.002929688 -34.90625 l 1
60.037109375 155.05859375 m 1
 165.095703125 50 l 1
 60.037109375 -55.05859375 l 1
 60.037109375 155.05859375 l 1
EndSplineSet
EndChar

StartChar: uni03FA
Encoding: 1018 1018 126
Width: 1000
Flags: H
LayerCount: 2
Fore
SplineSet
306.983398438 22.07421875 m 1
 698.178710938 -139.965820312 l 1
 144.943359375 -139.965820312 l 1
 306.983398438 22.07421875 l 1
499.998046875 215.095703125 m 1
 744.124023438 -29.0302734375 l 1
 398.880859375 113.978515625 l 1
 499.998046875 215.095703125 l 1
686.021484375 401.119140625 m 1
 829.030273438 55.8759765625 l 1
 584.904296875 300.001953125 l 1
 686.021484375 401.119140625 l 1
939.965820312 655.056640625 m 1
 939.965820312 101.821289062 l 1
 777.92578125 493.016601562 l 1
 939.965820312 655.056640625 l 1
EndSplineSet
EndChar

StartChar: uni03FB
Encoding: 1019 1019 127
Width: 1000
Flags: H
LayerCount: 2
Fore
SplineSet
693.01953125 22.07421875 m 1
 855.05859375 -139.965820312 l 1
 301.81640625 -139.965820312 l 1
 693.01953125 22.07421875 l 1
499.998046875 215.095703125 m 1
 601.114257812 113.978515625 l 1
 255.87890625 -29.0302734375 l 1
 499.998046875 215.095703125 l 1
313.973632812 401.119140625 m 1
 415.090820312 300.001953125 l 1
 170.971679688 55.8759765625 l 1
 313.973632812 401.119140625 l 1
60.037109375 655.056640625 m 1
 222.069335938 493.024414062 l 1
 60.037109375 101.828125 l 1
 60.037109375 655.056640625 l 1
EndSplineSet
EndChar

StartChar: uni03FC
Encoding: 1020 1020 128
Width: 1000
Flags: H
LayerCount: 2
Fore
SplineSet
144.943359375 739.962890625 m 1
 698.171875 739.962890625 l 1
 306.975585938 577.930664062 l 1
 144.943359375 739.962890625 l 1
744.124023438 629.028320312 m 1
 499.998046875 384.909179688 l 1
 398.880859375 486.026367188 l 1
 744.124023438 629.028320312 l 1
829.030273438 544.12109375 m 1
 686.021484375 198.885742188 l 1
 584.904296875 300.001953125 l 1
 829.030273438 544.12109375 l 1
939.965820312 498.18359375 m 1
 939.965820312 -55.05859375 l 1
 777.92578125 106.98046875 l 1
 939.965820312 498.18359375 l 1
EndSplineSet
EndChar

StartChar: uni03FD
Encoding: 1021 1021 129
Width: 1000
Flags: H
LayerCount: 2
Fore
SplineSet
301.823242188 739.962890625 m 1
 855.05859375 739.962890625 l 1
 693.01953125 577.930664062 l 1
 301.823242188 739.962890625 l 1
255.87890625 629.028320312 m 1
 601.114257812 486.026367188 l 1
 499.998046875 384.909179688 l 1
 255.87890625 629.028320312 l 1
170.971679688 544.12109375 m 1
 415.090820312 300.001953125 l 1
 313.973632812 198.885742188 l 1
 170.971679688 544.12109375 l 1
60.037109375 498.176757812 m 1
 222.069335938 106.98046875 l 1
 60.037109375 -55.05859375 l 1
 60.037109375 498.176757812 l 1
EndSplineSet
EndChar

StartChar: Upsilon
Encoding: 933 933 130
Width: 1000
Flags: H
LayerCount: 2
Fore
SplineSet
306.983398438 22.07421875 m 1
 698.178710938 -139.965820312 l 1
 144.943359375 -139.965820312 l 1
 306.983398438 22.07421875 l 1
499.998046875 215.095703125 m 1
 744.124023438 -29.0302734375 l 1
 398.880859375 113.978515625 l 1
 499.998046875 215.095703125 l 1
686.021484375 401.119140625 m 1
 829.030273438 55.8759765625 l 1
 584.904296875 300.001953125 l 1
 686.021484375 401.119140625 l 1
939.965820312 655.056640625 m 1
 939.965820312 101.821289062 l 1
 777.92578125 493.016601562 l 1
 939.965820312 655.056640625 l 1
60.037109375 739.962890625 m 1
 855.05859375 739.962890625 l 1
 60.037109375 -55.05859375 l 1
 60.037109375 739.962890625 l 1
EndSplineSet
EndChar

StartChar: upsilon
Encoding: 965 965 131
Width: 1000
Flags: H
LayerCount: 2
Fore
SplineSet
693.01953125 22.07421875 m 1
 855.05859375 -139.965820312 l 1
 301.81640625 -139.965820312 l 1
 693.01953125 22.07421875 l 1
499.998046875 215.095703125 m 1
 601.114257812 113.978515625 l 1
 255.87890625 -29.0302734375 l 1
 499.998046875 215.095703125 l 1
313.973632812 401.119140625 m 1
 415.090820312 300.001953125 l 1
 170.971679688 55.8759765625 l 1
 313.973632812 401.119140625 l 1
60.037109375 655.056640625 m 1
 222.069335938 493.024414062 l 1
 60.037109375 101.828125 l 1
 60.037109375 655.056640625 l 1
144.943359375 739.962890625 m 1
 939.965820312 739.962890625 l 1
 939.965820312 -55.05859375 l 1
 144.943359375 739.962890625 l 1
EndSplineSet
EndChar

StartChar: Phi
Encoding: 934 934 132
Width: 1000
Flags: H
LayerCount: 2
Fore
SplineSet
144.943359375 739.962890625 m 1
 698.171875 739.962890625 l 1
 306.975585938 577.930664062 l 1
 144.943359375 739.962890625 l 1
744.124023438 629.028320312 m 1
 499.998046875 384.909179688 l 1
 398.880859375 486.026367188 l 1
 744.124023438 629.028320312 l 1
829.030273438 544.12109375 m 1
 686.021484375 198.885742188 l 1
 584.904296875 300.001953125 l 1
 829.030273438 544.12109375 l 1
939.965820312 498.18359375 m 1
 939.965820312 -55.05859375 l 1
 777.92578125 106.98046875 l 1
 939.965820312 498.18359375 l 1
60.037109375 655.056640625 m 1
 855.05859375 -139.965820312 l 1
 60.037109375 -139.965820312 l 1
 60.037109375 655.056640625 l 1
EndSplineSet
EndChar

StartChar: phi
Encoding: 966 966 133
Width: 1000
Flags: H
LayerCount: 2
Fore
SplineSet
301.823242188 739.962890625 m 1
 855.05859375 739.962890625 l 1
 693.01953125 577.930664062 l 1
 301.823242188 739.962890625 l 1
255.87890625 629.028320312 m 1
 601.114257812 486.026367188 l 1
 499.998046875 384.909179688 l 1
 255.87890625 629.028320312 l 1
170.971679688 544.12109375 m 1
 415.090820312 300.001953125 l 1
 313.973632812 198.885742188 l 1
 170.971679688 544.12109375 l 1
60.037109375 498.176757812 m 1
 222.069335938 106.98046875 l 1
 60.037109375 -55.05859375 l 1
 60.037109375 498.176757812 l 1
939.965820312 655.056640625 m 1
 939.965820312 -139.965820312 l 1
 144.943359375 -139.965820312 l 1
 939.965820312 655.056640625 l 1
EndSplineSet
EndChar

StartChar: Chi
Encoding: 935 935 134
Width: 1000
Flags: H
LayerCount: 2
Fore
SplineSet
60.037109375 655.056640625 m 1
 415.090820312 300.001953125 l 1
 60.037109375 -55.05859375 l 1
 60.037109375 655.056640625 l 1
144.943359375 739.962890625 m 1
 939.965820312 739.962890625 l 1
 939.965820312 360.0390625 l 1
 524.8671875 360.0390625 l 1
 144.943359375 739.962890625 l 1
524.8671875 239.965820312 m 1
 939.965820312 239.965820312 l 1
 939.965820312 -139.965820312 l 1
 144.943359375 -139.965820312 l 1
 524.8671875 239.965820312 l 1
EndSplineSet
EndChar

StartChar: chi
Encoding: 967 967 135
Width: 1000
Flags: H
LayerCount: 2
Fore
SplineSet
939.965820312 655.056640625 m 1
 939.965820312 -55.05859375 l 1
 584.904296875 300.001953125 l 1
 939.965820312 655.056640625 l 1
60.037109375 739.962890625 m 1
 855.05859375 739.962890625 l 1
 475.127929688 360.0390625 l 1
 60.037109375 360.0390625 l 1
 60.037109375 739.962890625 l 1
60.037109375 239.965820312 m 1
 475.127929688 239.965820312 l 1
 855.05859375 -139.965820312 l 1
 60.037109375 -139.965820312 l 1
 60.037109375 239.965820312 l 1
EndSplineSet
EndChar

StartChar: Psi
Encoding: 936 936 136
Width: 1000
Flags: H
LayerCount: 2
Fore
SplineSet
144.943359375 739.962890625 m 1
 855.05859375 739.962890625 l 1
 499.998046875 384.909179688 l 1
 144.943359375 739.962890625 l 1
60.037109375 655.056640625 m 1
 439.9609375 275.1328125 l 1
 439.9609375 -139.965820312 l 1
 60.037109375 -139.965820312 l 1
 60.037109375 655.056640625 l 1
939.965820312 655.056640625 m 1
 939.965820312 -139.965820312 l 1
 560.034179688 -139.965820312 l 1
 560.034179688 275.1328125 l 1
 939.965820312 655.056640625 l 1
EndSplineSet
EndChar

StartChar: psi
Encoding: 968 968 137
Width: 1000
Flags: H
LayerCount: 2
Fore
SplineSet
499.998046875 215.095703125 m 1
 855.05859375 -139.965820312 l 1
 144.943359375 -139.965820312 l 1
 499.998046875 215.095703125 l 1
60.037109375 739.962890625 m 1
 439.9609375 739.962890625 l 1
 439.9609375 324.872070312 l 1
 60.037109375 -55.05859375 l 1
 60.037109375 739.962890625 l 1
560.034179688 739.962890625 m 1
 939.965820312 739.962890625 l 1
 939.965820312 -55.05859375 l 1
 560.034179688 324.872070312 l 1
 560.034179688 739.962890625 l 1
EndSplineSet
EndChar

StartChar: uni03A9
Encoding: 937 937 138
Width: 1000
Flags: H
LayerCount: 2
Fore
SplineSet
60.037109375 739.962890625 m 1
 188.393554688 739.962890625 l 1
 60.037109375 611.606445312 l 1
 60.037109375 739.962890625 l 1
60.037109375 -11.609375 m 1
 188.393554688 -139.965820312 l 1
 60.037109375 -139.965820312 l 1
 60.037109375 -11.609375 l 1
811.609375 739.962890625 m 1
 939.965820312 739.962890625 l 1
 939.965820312 611.606445312 l 1
 811.609375 739.962890625 l 1
939.965820312 -11.609375 m 1
 939.965820312 -139.965820312 l 1
 811.609375 -139.965820312 l 1
 939.965820312 -11.609375 l 1
358.206054688 739.962890625 m 1
 641.795898438 739.962890625 l 1
 748.427734375 633.33203125 l 1
 499.998046875 384.909179688 l 1
 251.575195312 633.33203125 l 1
 358.206054688 739.962890625 l 1
166.66796875 548.424804688 m 1
 415.090820312 300.001953125 l 1
 166.66796875 51.572265625 l 1
 60.037109375 158.204101562 l 1
 60.037109375 441.793945312 l 1
 166.66796875 548.424804688 l 1
499.998046875 215.095703125 m 1
 748.427734375 -33.333984375 l 1
 641.795898438 -139.965820312 l 1
 358.206054688 -139.965820312 l 1
 251.575195312 -33.333984375 l 1
 499.998046875 215.095703125 l 1
833.333984375 548.424804688 m 1
 939.965820312 441.793945312 l 1
 939.965820312 158.204101562 l 1
 833.333984375 51.572265625 l 1
 584.904296875 300.001953125 l 1
 833.333984375 548.424804688 l 1
EndSplineSet
EndChar

StartChar: omega
Encoding: 969 969 139
Width: 1000
Flags: H
LayerCount: 2
Fore
SplineSet
60.037109375 739.962890625 m 1
 355.053710938 739.962890625 l 1
 60.037109375 444.946289062 l 1
 60.037109375 739.962890625 l 1
60.037109375 155.05859375 m 1
 355.053710938 -139.965820312 l 1
 60.037109375 -139.965820312 l 1
 60.037109375 155.05859375 l 1
939.965820312 155.05859375 m 1
 939.965820312 -139.965820312 l 1
 644.94140625 -139.965820312 l 1
 939.965820312 155.05859375 l 1
644.94140625 739.962890625 m 1
 939.965820312 739.962890625 l 1
 939.965820312 444.946289062 l 1
 644.94140625 739.962890625 l 1
499.998046875 715.09375 m 1
 665.09375 549.997070312 l 1
 499.998046875 384.909179688 l 1
 334.909179688 549.997070312 l 1
 499.998046875 715.09375 l 1
750 465.090820312 m 1
 915.095703125 300.001953125 l 1
 750 134.90625 l 1
 584.904296875 300.001953125 l 1
 750 465.090820312 l 1
499.998046875 215.095703125 m 1
 665.09375 50 l 1
 499.998046875 -115.095703125 l 1
 334.909179688 50 l 1
 499.998046875 215.095703125 l 1
250.002929688 465.090820312 m 1
 415.090820312 300.001953125 l 1
 250.002929688 134.90625 l 1
 84.90625 300.001953125 l 1
 250.002929688 465.090820312 l 1
EndSplineSet
EndChar

StartChar: Oacute
Encoding: 211 211 140
Width: 866
Flags: HW
LayerCount: 2
Fore
SplineSet
60.037109375 239.965820312 m 1
 184.6875 239.965820312 l 1
 60.037109375 24.0595703125 l 1
 60.037109375 239.965820312 l 1
323.341796875 239.965820312 m 1
 641.973632812 239.965820312 l 1
 164.018554688 -35.9765625 l 1
 323.341796875 239.965820312 l 1
EndSplineSet
EndChar

StartChar: oacute
Encoding: 243 243 141
Width: 866
Flags: HW
LayerCount: 2
Fore
SplineSet
681.340820312 239.965820312 m 1
 805.991210938 239.965820312 l 1
 805.991210938 24.0595703125 l 1
 681.340820312 239.965820312 l 1
224.0546875 239.965820312 m 1
 542.6875 239.965820312 l 1
 702.010742188 -35.9765625 l 1
 224.0546875 239.965820312 l 1
EndSplineSet
EndChar

StartChar: Uhungarumlaut
Encoding: 368 368 142
Width: 866
Flags: HW
LayerCount: 2
Fore
SplineSet
60.037109375 575.9453125 m 1
 184.6875 360.0390625 l 1
 60.037109375 360.0390625 l 1
 60.037109375 575.9453125 l 1
164.025390625 635.966796875 m 1
 641.951171875 360.0390625 l 1
 323.333984375 360.0390625 l 1
 164.025390625 635.966796875 l 1
EndSplineSet
EndChar

StartChar: uhungarumlaut
Encoding: 369 369 143
Width: 866
Flags: HW
LayerCount: 2
Fore
SplineSet
805.991210938 575.9453125 m 1
 805.991210938 360.0390625 l 1
 681.340820312 360.0390625 l 1
 805.991210938 575.9453125 l 1
702.002929688 635.966796875 m 1
 542.694335938 360.0390625 l 1
 224.077148438 360.0390625 l 1
 702.002929688 635.966796875 l 1
EndSplineSet
EndChar

StartChar: Iotadieresis
Encoding: 938 938 144
Width: 1000
Flags: H
LayerCount: 2
Fore
SplineSet
144.943359375 739.962890625 m 1
 939.965820312 739.962890625 l 1
 939.965820312 -55.05859375 l 1
 144.943359375 739.962890625 l 1
60.037109375 655.056640625 m 1
 855.05859375 -139.965820312 l 1
 60.037109375 -139.965820312 l 1
 60.037109375 655.056640625 l 1
EndSplineSet
EndChar

StartChar: iotadieresis
Encoding: 970 970 145
Width: 1000
Flags: H
LayerCount: 2
Fore
SplineSet
60.037109375 739.962890625 m 1
 855.05859375 739.962890625 l 1
 60.037109375 -55.05859375 l 1
 60.037109375 739.962890625 l 1
939.965820312 655.056640625 m 1
 939.965820312 -139.965820312 l 1
 144.943359375 -139.965820312 l 1
 939.965820312 655.056640625 l 1
EndSplineSet
EndChar

StartChar: Aacute
Encoding: 193 193 146
Width: 866
Flags: HW
LayerCount: 2
Fore
SplineSet
164.025390625 635.974609375 m 1
 351.001953125 528.021484375 l 1
 288.67578125 420.076171875 l 1
 164.025390625 635.974609375 l 1
454.990234375 467.984375 m 1
 641.958984375 360.0390625 l 1
 392.665039062 360.0390625 l 1
 454.990234375 467.984375 l 1
392.665039062 239.965820312 m 1
 641.973632812 239.965820312 l 1
 454.990234375 132.012695312 l 1
 392.665039062 239.965820312 l 1
288.67578125 179.928710938 m 1
 351.001953125 71.9755859375 l 1
 164.018554688 -35.9765625 l 1
 288.67578125 179.928710938 l 1
60.037109375 239.965820312 m 1
 184.6875 239.965820312 l 1
 60.037109375 24.0595703125 l 1
 60.037109375 239.965820312 l 1
60.037109375 575.9453125 m 1
 184.6875 360.0390625 l 1
 60.037109375 360.0390625 l 1
 60.037109375 575.9453125 l 1
EndSplineSet
EndChar

StartChar: aacute
Encoding: 225 225 147
Width: 866
Flags: HW
LayerCount: 2
Fore
SplineSet
702.002929688 635.974609375 m 1
 577.352539062 420.076171875 l 1
 515.02734375 528.021484375 l 1
 702.002929688 635.974609375 l 1
411.038085938 467.984375 m 1
 473.36328125 360.0390625 l 1
 224.0703125 360.0390625 l 1
 411.038085938 467.984375 l 1
224.0546875 239.965820312 m 1
 473.36328125 239.965820312 l 1
 411.038085938 132.012695312 l 1
 224.0546875 239.965820312 l 1
577.352539062 179.928710938 m 1
 702.010742188 -35.9765625 l 1
 515.02734375 71.9755859375 l 1
 577.352539062 179.928710938 l 1
681.340820312 239.965820312 m 1
 805.991210938 239.965820312 l 1
 805.991210938 24.0595703125 l 1
 681.340820312 239.965820312 l 1
805.991210938 575.9453125 m 1
 805.991210938 360.0390625 l 1
 681.340820312 360.0390625 l 1
 805.991210938 575.9453125 l 1
EndSplineSet
EndChar

StartChar: Uacute
Encoding: 218 218 148
Width: 866
Flags: HW
LayerCount: 2
Fore
SplineSet
60.037109375 696.01171875 m 1
 312.940429688 549.997070312 l 1
 60.037109375 403.991210938 l 1
 60.037109375 696.01171875 l 1
372.977539062 446.008789062 m 1
 372.977539062 153.98828125 l 1
 120.07421875 300.001953125 l 1
 372.977539062 446.008789062 l 1
493.05078125 446.008789062 m 1
 745.955078125 300.001953125 l 1
 493.05078125 153.98828125 l 1
 493.05078125 446.008789062 l 1
60.037109375 196.013671875 m 1
 312.940429688 50 l 1
 60.037109375 -96.013671875 l 1
 60.037109375 196.013671875 l 1
EndSplineSet
EndChar

StartChar: uacute
Encoding: 250 250 149
Width: 866
Flags: HW
LayerCount: 2
Fore
SplineSet
805.991210938 696.01171875 m 1
 805.991210938 403.991210938 l 1
 553.087890625 549.997070312 l 1
 805.991210938 696.01171875 l 1
493.05078125 446.008789062 m 1
 745.955078125 300.001953125 l 1
 493.05078125 153.98828125 l 1
 493.05078125 446.008789062 l 1
372.977539062 446.008789062 m 1
 372.977539062 153.98828125 l 1
 120.07421875 300.001953125 l 1
 372.977539062 446.008789062 l 1
805.991210938 196.013671875 m 1
 805.991210938 -96.013671875 l 1
 553.087890625 50 l 1
 805.991210938 196.013671875 l 1
EndSplineSet
EndChar

StartChar: Ohungarumlaut
Encoding: 336 336 150
Width: 866
Flags: HW
LayerCount: 2
Fore
SplineSet
164.033203125 635.974609375 m 1
 312.940429688 549.997070312 l 1
 238.486328125 507.012695312 l 1
 164.033203125 635.974609375 l 1
493.05078125 446.008789062 m 1
 641.958984375 360.0390625 l 1
 493.05078125 360.0390625 l 1
 493.05078125 446.008789062 l 1
493.05078125 239.965820312 m 1
 641.973632812 239.965820312 l 1
 493.05078125 153.98828125 l 1
 493.05078125 239.965820312 l 1
238.486328125 92.984375 m 1
 312.940429688 50 l 1
 164.033203125 -35.9765625 l 1
 238.486328125 92.984375 l 1
60.037109375 196.013671875 m 1
 134.490234375 153.029296875 l 1
 60.037109375 24.0751953125 l 1
 60.037109375 196.013671875 l 1
60.037109375 575.922851562 m 1
 134.490234375 446.96875 l 1
 60.037109375 403.991210938 l 1
 60.037109375 575.922851562 l 1
194.52734375 342.987304688 m 1
 219.352539062 300.001953125 l 1
 194.52734375 257.010742188 l 1
 120.07421875 300.001953125 l 1
 194.52734375 342.987304688 l 1
323.333984375 239.965820312 m 1
 372.977539062 239.965820312 l 1
 372.977539062 153.98828125 l 1
 298.516601562 196.973632812 l 1
 323.333984375 239.965820312 l 1
372.977539062 446.008789062 m 1
 372.977539062 360.0390625 l 1
 323.333984375 360.0390625 l 1
 298.516601562 403.024414062 l 1
 372.977539062 446.008789062 l 1
EndSplineSet
EndChar

StartChar: ohungarumlaut
Encoding: 337 337 151
Width: 866
Flags: HW
LayerCount: 2
Fore
SplineSet
702.002929688 635.974609375 m 1
 627.541992188 507.012695312 l 1
 553.087890625 549.997070312 l 1
 702.002929688 635.974609375 l 1
372.977539062 446.008789062 m 1
 372.977539062 360.0390625 l 1
 224.0703125 360.0390625 l 1
 372.977539062 446.008789062 l 1
224.0546875 239.965820312 m 1
 372.977539062 239.965820312 l 1
 372.977539062 153.98828125 l 1
 224.0546875 239.965820312 l 1
627.541992188 92.984375 m 1
 702.002929688 -35.9765625 l 1
 553.087890625 50 l 1
 627.541992188 92.984375 l 1
805.991210938 196.013671875 m 1
 805.991210938 24.052734375 l 1
 731.530273438 153.021484375 l 1
 805.991210938 196.013671875 l 1
805.991210938 575.9453125 m 1
 805.991210938 403.991210938 l 1
 731.530273438 446.975585938 l 1
 805.991210938 575.9453125 l 1
671.493164062 342.987304688 m 1
 745.955078125 300.001953125 l 1
 671.493164062 257.010742188 l 1
 646.67578125 300.001953125 l 1
 671.493164062 342.987304688 l 1
493.05078125 239.965820312 m 1
 542.6875 239.965820312 l 1
 567.504882812 196.973632812 l 1
 493.05078125 153.98828125 l 1
 493.05078125 239.965820312 l 1
493.05078125 446.008789062 m 1
 567.504882812 403.024414062 l 1
 542.6875 360.0390625 l 1
 493.05078125 360.0390625 l 1
 493.05078125 446.008789062 l 1
EndSplineSet
EndChar

StartChar: Adieresis
Encoding: 196 196 152
Width: 866
Flags: HW
LayerCount: 2
Fore
SplineSet
60.037109375 696.01171875 m 1
 312.940429688 549.997070312 l 1
 60.037109375 403.991210938 l 1
 60.037109375 696.01171875 l 1
493.05078125 446.008789062 m 1
 745.955078125 300.001953125 l 1
 493.05078125 153.98828125 l 1
 493.05078125 446.008789062 l 1
60.037109375 196.013671875 m 1
 312.940429688 50 l 1
 60.037109375 -96.013671875 l 1
 60.037109375 196.013671875 l 1
EndSplineSet
EndChar

StartChar: adieresis
Encoding: 228 228 153
Width: 866
Flags: HW
LayerCount: 2
Fore
SplineSet
805.991210938 696.01171875 m 1
 805.991210938 403.991210938 l 1
 553.087890625 549.997070312 l 1
 805.991210938 696.01171875 l 1
372.977539062 446.008789062 m 1
 372.977539062 153.98828125 l 1
 120.07421875 300.001953125 l 1
 372.977539062 446.008789062 l 1
805.991210938 196.013671875 m 1
 805.991210938 -96.013671875 l 1
 553.087890625 50 l 1
 805.991210938 196.013671875 l 1
EndSplineSet
EndChar

StartChar: nine
Encoding: 57 57 154
Width: 1732
Flags: HW
LayerCount: 2
Fore
SplineSet
866.036132812 730.668945312 m 1
 1507.98730469 360.0390625 l 1
 224.077148438 360.0390625 l 1
 866.036132812 730.668945312 l 1
224.0546875 239.965820312 m 1
 1507.99414062 239.965820312 l 1
 866.028320312 -130.678710938 l 1
 224.0546875 239.965820312 l 1
EndSplineSet
EndChar

StartChar: Upsilondieresis
Encoding: 939 939 155
Width: 1000
Flags: H
LayerCount: 2
Fore
SplineSet
144.943359375 739.962890625 m 1
 439.9609375 739.962890625 l 1
 439.9609375 444.946289062 l 1
 144.943359375 739.962890625 l 1
60.037109375 655.056640625 m 1
 355.053710938 360.0390625 l 1
 60.037109375 360.0390625 l 1
 60.037109375 655.056640625 l 1
560.034179688 739.962890625 m 1
 855.05859375 739.962890625 l 1
 560.034179688 444.946289062 l 1
 560.034179688 739.962890625 l 1
939.965820312 655.056640625 m 1
 939.965820312 360.0390625 l 1
 644.94140625 360.0390625 l 1
 939.965820312 655.056640625 l 1
60.037109375 239.965820312 m 1
 355.053710938 239.965820312 l 1
 60.037109375 -55.05859375 l 1
 60.037109375 239.965820312 l 1
439.9609375 155.05859375 m 1
 439.9609375 -139.965820312 l 1
 144.943359375 -139.965820312 l 1
 439.9609375 155.05859375 l 1
560.034179688 155.05859375 m 1
 855.05859375 -139.965820312 l 1
 560.034179688 -139.965820312 l 1
 560.034179688 155.05859375 l 1
644.94140625 239.965820312 m 1
 939.965820312 239.965820312 l 1
 939.965820312 -55.05859375 l 1
 644.94140625 239.965820312 l 1
EndSplineSet
EndChar

StartChar: upsilondieresis
Encoding: 971 971 156
Width: 1000
Flags: H
LayerCount: 2
Fore
SplineSet
644.94140625 739.962890625 m 1
 939.965820312 739.962890625 l 1
 939.965820312 444.946289062 l 1
 644.94140625 739.962890625 l 1
560.034179688 655.056640625 m 1
 855.05859375 360.0390625 l 1
 560.034179688 360.0390625 l 1
 560.034179688 655.056640625 l 1
60.037109375 739.962890625 m 1
 355.053710938 739.962890625 l 1
 60.037109375 444.946289062 l 1
 60.037109375 739.962890625 l 1
439.9609375 655.056640625 m 1
 439.9609375 360.0390625 l 1
 144.943359375 360.0390625 l 1
 439.9609375 655.056640625 l 1
560.034179688 239.965820312 m 1
 855.05859375 239.965820312 l 1
 560.034179688 -55.05859375 l 1
 560.034179688 239.965820312 l 1
939.965820312 155.05859375 m 1
 939.965820312 -139.965820312 l 1
 644.94140625 -139.965820312 l 1
 939.965820312 155.05859375 l 1
60.037109375 155.05859375 m 1
 355.053710938 -139.965820312 l 1
 60.037109375 -139.965820312 l 1
 60.037109375 155.05859375 l 1
144.943359375 239.965820312 m 1
 439.9609375 239.965820312 l 1
 439.9609375 -55.05859375 l 1
 144.943359375 239.965820312 l 1
EndSplineSet
EndChar
